<?xml version="1.0" encoding="us-ascii" standalone="no"?><svg xmlns="http://www.w3.org/2000/svg" xmlns:xlink="http://www.w3.org/1999/xlink" contentStyleType="text/css" height="1426px" preserveAspectRatio="none" style="width:517px;height:1426px;background:#FFFFFF;" version="1.1" viewBox="0 0 517 1426" width="517px" zoomAndPan="magnify"><defs/><g><!--class Teacher--><g id="elem_Teacher"><rect codeLine="1" fill="#F1F1F1" height="196.9688" id="Teacher" rx="2.5" ry="2.5" style="stroke:#181818;stroke-width:0.5;" width="236" x="7" y="264"/><ellipse cx="94.25" cy="280" fill="#ADD1B2" rx="11" ry="11" style="stroke:#181818;stroke-width:1.0;"/><path d="M90.7813,274.7813 L90.7813,273.8438 L97.75,273.8438 L98.6094,276.5313 L97.8281,276.8281 Q97.2188,275.6719 96.6719,275.2344 Q96.1406,274.7813 95.5,274.7813 L93.6406,274.7813 Q93.4688,274.7813 93.3906,274.8438 Q93.3125,274.9063 93.3125,275.0469 L93.3125,278.8906 L94.9688,278.8906 Q95.5156,278.8906 95.7344,278.6406 Q95.9688,278.3906 95.9688,277.8281 L95.9688,277.1719 L96.8906,277.1719 L96.8906,281.6094 L95.9688,281.6094 L95.9688,281.0781 Q95.9688,280.4531 95.7344,280.1406 Q95.5,279.8281 94.9688,279.8281 L93.3125,279.8281 L93.3125,284.5313 Q93.3125,284.6719 93.3906,284.7344 Q93.4688,284.7969 93.6406,284.7969 L95.3594,284.7969 Q96.2656,284.7969 96.8906,284.2969 Q97.5313,283.7813 98,282.4063 L98.8125,282.7188 L97.9531,285.7344 L90.7188,285.7344 L90.7188,284.7969 L91.375,284.7969 Q91.6094,284.7969 91.6563,284.75 Q91.7188,284.6875 91.7188,284.5313 L91.7188,275.0469 Q91.7188,274.8906 91.6563,274.8438 Q91.6094,274.7813 91.375,274.7813 L90.7813,274.7813 Z " fill="#000000"/><text fill="#000000" font-family="sans-serif" font-size="14" lengthAdjust="spacing" textLength="53" x="114.75" y="285.7969">Teacher</text><line style="stroke:#181818;stroke-width:0.5;" x1="8" x2="242" y1="296" y2="296"/><ellipse cx="18" cy="310.8105" fill="#000000" rx="3" ry="3" style="stroke:#000000;stroke-width:1.0;"/><text fill="#000000" font-family="sans-serif" font-size="14" lengthAdjust="spacing" textLength="153" x="27" y="315.1074">teacher_id : varchar(50)</text><line style="stroke:#181818;stroke-width:1.0;" x1="8" x2="242" y1="322.6211" y2="322.6211"/><ellipse cx="18" cy="337.4316" fill="#000000" rx="3" ry="3" style="stroke:#000000;stroke-width:1.0;"/><text fill="#000000" font-family="sans-serif" font-size="14" lengthAdjust="spacing" textLength="185" x="27" y="341.7285">teacher_name : varchar(100)</text><ellipse cx="18" cy="356.0527" fill="#000000" rx="3" ry="3" style="stroke:#000000;stroke-width:1.0;"/><text fill="#000000" font-family="sans-serif" font-size="14" lengthAdjust="spacing" textLength="198" x="27" y="360.3496">teacher_number : varchar(100)</text><ellipse cx="18" cy="374.6738" fill="#000000" rx="3" ry="3" style="stroke:#000000;stroke-width:1.0;"/><text fill="#000000" font-family="sans-serif" font-size="14" lengthAdjust="spacing" textLength="210" x="27" y="378.9707">teacher_password : varchar(100)</text><ellipse cx="18" cy="393.2949" fill="#000000" rx="3" ry="3" style="stroke:#000000;stroke-width:1.0;"/><text fill="#000000" font-family="sans-serif" font-size="14" lengthAdjust="spacing" textLength="175" x="27" y="397.5918">teacher_email : varchar(50)</text><ellipse cx="18" cy="411.916" fill="#000000" rx="3" ry="3" style="stroke:#000000;stroke-width:1.0;"/><text fill="#000000" font-family="sans-serif" font-size="14" lengthAdjust="spacing" textLength="119" x="27" y="416.2129">delete_flag : tinyint</text><ellipse cx="18" cy="430.5371" fill="#000000" rx="3" ry="3" style="stroke:#000000;stroke-width:1.0;"/><text fill="#000000" font-family="sans-serif" font-size="14" lengthAdjust="spacing" textLength="150" x="27" y="434.834">create_time : timestamp</text><ellipse cx="18" cy="449.1582" fill="#000000" rx="3" ry="3" style="stroke:#000000;stroke-width:1.0;"/><text fill="#000000" font-family="sans-serif" font-size="14" lengthAdjust="spacing" textLength="154" x="27" y="453.4551">update_time : timestamp</text></g><!--class Student--><g id="elem_Student"><rect codeLine="13" fill="#F1F1F1" height="178.3477" id="Student" rx="2.5" ry="2.5" style="stroke:#181818;stroke-width:0.5;" width="223" x="265.5" y="7"/><ellipse cx="348.25" cy="23" fill="#ADD1B2" rx="11" ry="11" style="stroke:#181818;stroke-width:1.0;"/><path d="M344.7813,17.7813 L344.7813,16.8438 L351.75,16.8438 L352.6094,19.5313 L351.8281,19.8281 Q351.2188,18.6719 350.6719,18.2344 Q350.1406,17.7813 349.5,17.7813 L347.6406,17.7813 Q347.4688,17.7813 347.3906,17.8438 Q347.3125,17.9063 347.3125,18.0469 L347.3125,21.8906 L348.9688,21.8906 Q349.5156,21.8906 349.7344,21.6406 Q349.9688,21.3906 349.9688,20.8281 L349.9688,20.1719 L350.8906,20.1719 L350.8906,24.6094 L349.9688,24.6094 L349.9688,24.0781 Q349.9688,23.4531 349.7344,23.1406 Q349.5,22.8281 348.9688,22.8281 L347.3125,22.8281 L347.3125,27.5313 Q347.3125,27.6719 347.3906,27.7344 Q347.4688,27.7969 347.6406,27.7969 L349.3594,27.7969 Q350.2656,27.7969 350.8906,27.2969 Q351.5313,26.7813 352,25.4063 L352.8125,25.7188 L351.9531,28.7344 L344.7188,28.7344 L344.7188,27.7969 L345.375,27.7969 Q345.6094,27.7969 345.6563,27.75 Q345.7188,27.6875 345.7188,27.5313 L345.7188,18.0469 Q345.7188,17.8906 345.6563,17.8438 Q345.6094,17.7813 345.375,17.7813 L344.7813,17.7813 Z " fill="#000000"/><text fill="#000000" font-family="sans-serif" font-size="14" lengthAdjust="spacing" textLength="49" x="368.75" y="28.7969">Student</text><line style="stroke:#181818;stroke-width:0.5;" x1="266.5" x2="487.5" y1="39" y2="39"/><ellipse cx="276.5" cy="53.8105" fill="#000000" rx="3" ry="3" style="stroke:#000000;stroke-width:1.0;"/><text fill="#000000" font-family="sans-serif" font-size="14" lengthAdjust="spacing" textLength="152" x="285.5" y="58.1074">student_id : varchar(50)</text><line style="stroke:#181818;stroke-width:1.0;" x1="266.5" x2="487.5" y1="65.6211" y2="65.6211"/><ellipse cx="276.5" cy="80.4316" fill="#000000" rx="3" ry="3" style="stroke:#000000;stroke-width:1.0;"/><text fill="#000000" font-family="sans-serif" font-size="14" lengthAdjust="spacing" textLength="184" x="285.5" y="84.7285">student_name : varchar(100)</text><ellipse cx="276.5" cy="99.0527" fill="#000000" rx="3" ry="3" style="stroke:#000000;stroke-width:1.0;"/><text fill="#000000" font-family="sans-serif" font-size="14" lengthAdjust="spacing" textLength="197" x="285.5" y="103.3496">student_number : varchar(100)</text><ellipse cx="276.5" cy="117.6738" fill="#000000" rx="3" ry="3" style="stroke:#000000;stroke-width:1.0;"/><text fill="#000000" font-family="sans-serif" font-size="14" lengthAdjust="spacing" textLength="174" x="285.5" y="121.9707">student_email : varchar(50)</text><ellipse cx="276.5" cy="136.2949" fill="#000000" rx="3" ry="3" style="stroke:#000000;stroke-width:1.0;"/><text fill="#000000" font-family="sans-serif" font-size="14" lengthAdjust="spacing" textLength="119" x="285.5" y="140.5918">delete_flag : tinyint</text><ellipse cx="276.5" cy="154.916" fill="#000000" rx="3" ry="3" style="stroke:#000000;stroke-width:1.0;"/><text fill="#000000" font-family="sans-serif" font-size="14" lengthAdjust="spacing" textLength="150" x="285.5" y="159.2129">create_time : timestamp</text><ellipse cx="276.5" cy="173.5371" fill="#000000" rx="3" ry="3" style="stroke:#000000;stroke-width:1.0;"/><text fill="#000000" font-family="sans-serif" font-size="14" lengthAdjust="spacing" textLength="154" x="285.5" y="177.834">update_time : timestamp</text></g><!--class Room--><g id="elem_Room"><rect codeLine="24" fill="#F1F1F1" height="178.3477" id="Room" rx="2.5" ry="2.5" style="stroke:#181818;stroke-width:0.5;" width="208" x="302" y="1185"/><ellipse cx="383.25" cy="1201" fill="#ADD1B2" rx="11" ry="11" style="stroke:#181818;stroke-width:1.0;"/><path d="M379.7813,1195.7813 L379.7813,1194.8438 L386.75,1194.8438 L387.6094,1197.5313 L386.8281,1197.8281 Q386.2188,1196.6719 385.6719,1196.2344 Q385.1406,1195.7813 384.5,1195.7813 L382.6406,1195.7813 Q382.4688,1195.7813 382.3906,1195.8438 Q382.3125,1195.9063 382.3125,1196.0469 L382.3125,1199.8906 L383.9688,1199.8906 Q384.5156,1199.8906 384.7344,1199.6406 Q384.9688,1199.3906 384.9688,1198.8281 L384.9688,1198.1719 L385.8906,1198.1719 L385.8906,1202.6094 L384.9688,1202.6094 L384.9688,1202.0781 Q384.9688,1201.4531 384.7344,1201.1406 Q384.5,1200.8281 383.9688,1200.8281 L382.3125,1200.8281 L382.3125,1205.5313 Q382.3125,1205.6719 382.3906,1205.7344 Q382.4688,1205.7969 382.6406,1205.7969 L384.3594,1205.7969 Q385.2656,1205.7969 385.8906,1205.2969 Q386.5313,1204.7813 387,1203.4063 L387.8125,1203.7188 L386.9531,1206.7344 L379.7188,1206.7344 L379.7188,1205.7969 L380.375,1205.7969 Q380.6094,1205.7969 380.6563,1205.75 Q380.7188,1205.6875 380.7188,1205.5313 L380.7188,1196.0469 Q380.7188,1195.8906 380.6563,1195.8438 Q380.6094,1195.7813 380.375,1195.7813 L379.7813,1195.7813 Z " fill="#000000"/><text fill="#000000" font-family="sans-serif" font-size="14" lengthAdjust="spacing" textLength="37" x="403.75" y="1206.7969">Room</text><line style="stroke:#181818;stroke-width:0.5;" x1="303" x2="509" y1="1217" y2="1217"/><ellipse cx="313" cy="1231.8105" fill="#000000" rx="3" ry="3" style="stroke:#000000;stroke-width:1.0;"/><text fill="#000000" font-family="sans-serif" font-size="14" lengthAdjust="spacing" textLength="137" x="322" y="1236.1074">room_id : varchar(50)</text><line style="stroke:#181818;stroke-width:1.0;" x1="303" x2="509" y1="1243.6211" y2="1243.6211"/><ellipse cx="313" cy="1258.4316" fill="#000000" rx="3" ry="3" style="stroke:#000000;stroke-width:1.0;"/><text fill="#000000" font-family="sans-serif" font-size="14" lengthAdjust="spacing" textLength="182" x="322" y="1262.7285">room_number : varchar(100)</text><ellipse cx="313" cy="1277.0527" fill="#000000" rx="3" ry="3" style="stroke:#000000;stroke-width:1.0;"/><text fill="#000000" font-family="sans-serif" font-size="14" lengthAdjust="spacing" textLength="85" x="322" y="1281.3496">capacity : INT</text><ellipse cx="313" cy="1295.6738" fill="#000000" rx="3" ry="3" style="stroke:#000000;stroke-width:1.0;"/><text fill="#000000" font-family="sans-serif" font-size="14" lengthAdjust="spacing" textLength="120" x="322" y="1299.9707">room_state : tinyint</text><ellipse cx="313" cy="1314.2949" fill="#000000" rx="3" ry="3" style="stroke:#000000;stroke-width:1.0;"/><text fill="#000000" font-family="sans-serif" font-size="14" lengthAdjust="spacing" textLength="119" x="322" y="1318.5918">delete_flag : tinyint</text><ellipse cx="313" cy="1332.916" fill="#000000" rx="3" ry="3" style="stroke:#000000;stroke-width:1.0;"/><text fill="#000000" font-family="sans-serif" font-size="14" lengthAdjust="spacing" textLength="150" x="322" y="1337.2129">create_time : timestamp</text><ellipse cx="313" cy="1351.5371" fill="#000000" rx="3" ry="3" style="stroke:#000000;stroke-width:1.0;"/><text fill="#000000" font-family="sans-serif" font-size="14" lengthAdjust="spacing" textLength="154" x="322" y="1355.834">update_time : timestamp</text></g><!--class Course--><g id="elem_Course"><rect codeLine="35" fill="#F1F1F1" height="178.3477" id="Course" rx="2.5" ry="2.5" style="stroke:#181818;stroke-width:0.5;" width="206" x="72" y="540"/><ellipse cx="147.75" cy="556" fill="#ADD1B2" rx="11" ry="11" style="stroke:#181818;stroke-width:1.0;"/><path d="M144.2813,550.7813 L144.2813,549.8438 L151.25,549.8438 L152.1094,552.5313 L151.3281,552.8281 Q150.7188,551.6719 150.1719,551.2344 Q149.6406,550.7813 149,550.7813 L147.1406,550.7813 Q146.9688,550.7813 146.8906,550.8438 Q146.8125,550.9063 146.8125,551.0469 L146.8125,554.8906 L148.4688,554.8906 Q149.0156,554.8906 149.2344,554.6406 Q149.4688,554.3906 149.4688,553.8281 L149.4688,553.1719 L150.3906,553.1719 L150.3906,557.6094 L149.4688,557.6094 L149.4688,557.0781 Q149.4688,556.4531 149.2344,556.1406 Q149,555.8281 148.4688,555.8281 L146.8125,555.8281 L146.8125,560.5313 Q146.8125,560.6719 146.8906,560.7344 Q146.9688,560.7969 147.1406,560.7969 L148.8594,560.7969 Q149.7656,560.7969 150.3906,560.2969 Q151.0313,559.7813 151.5,558.4063 L152.3125,558.7188 L151.4531,561.7344 L144.2188,561.7344 L144.2188,560.7969 L144.875,560.7969 Q145.1094,560.7969 145.1563,560.75 Q145.2188,560.6875 145.2188,560.5313 L145.2188,551.0469 Q145.2188,550.8906 145.1563,550.8438 Q145.1094,550.7813 144.875,550.7813 L144.2813,550.7813 Z " fill="#000000"/><text fill="#000000" font-family="sans-serif" font-size="14" lengthAdjust="spacing" textLength="46" x="168.25" y="561.7969">Course</text><line style="stroke:#181818;stroke-width:0.5;" x1="73" x2="277" y1="572" y2="572"/><ellipse cx="83" cy="586.8105" fill="#000000" rx="3" ry="3" style="stroke:#000000;stroke-width:1.0;"/><text fill="#000000" font-family="sans-serif" font-size="14" lengthAdjust="spacing" textLength="148" x="92" y="591.1074">course_id : varchar(50)</text><line style="stroke:#181818;stroke-width:1.0;" x1="73" x2="277" y1="598.6211" y2="598.6211"/><ellipse cx="83" cy="613.4316" fill="#000000" rx="3" ry="3" style="stroke:#000000;stroke-width:1.0;"/><text fill="#000000" font-family="sans-serif" font-size="14" lengthAdjust="spacing" textLength="153" x="92" y="617.7285">teacher_id : varchar(50)</text><ellipse cx="83" cy="632.0527" fill="#000000" rx="3" ry="3" style="stroke:#000000;stroke-width:1.0;"/><text fill="#000000" font-family="sans-serif" font-size="14" lengthAdjust="spacing" textLength="180" x="92" y="636.3496">course_name : varchar(100)</text><ellipse cx="83" cy="650.6738" fill="#000000" rx="3" ry="3" style="stroke:#000000;stroke-width:1.0;"/><text fill="#000000" font-family="sans-serif" font-size="14" lengthAdjust="spacing" textLength="115" x="92" y="654.9707">student_num : INT</text><ellipse cx="83" cy="669.2949" fill="#000000" rx="3" ry="3" style="stroke:#000000;stroke-width:1.0;"/><text fill="#000000" font-family="sans-serif" font-size="14" lengthAdjust="spacing" textLength="119" x="92" y="673.5918">delete_flag : tinyint</text><ellipse cx="83" cy="687.916" fill="#000000" rx="3" ry="3" style="stroke:#000000;stroke-width:1.0;"/><text fill="#000000" font-family="sans-serif" font-size="14" lengthAdjust="spacing" textLength="150" x="92" y="692.2129">create_time : timestamp</text><ellipse cx="83" cy="706.5371" fill="#000000" rx="3" ry="3" style="stroke:#000000;stroke-width:1.0;"/><text fill="#000000" font-family="sans-serif" font-size="14" lengthAdjust="spacing" textLength="154" x="92" y="710.834">update_time : timestamp</text></g><!--class Room Booking--><g id="elem_Room Booking"><rect codeLine="46" fill="#F1F1F1" height="252.832" id="Room Booking" rx="2.5" ry="2.5" style="stroke:#181818;stroke-width:0.5;" width="181" x="84.5" y="797"/><ellipse cx="125.15" cy="813" fill="#ADD1B2" rx="11" ry="11" style="stroke:#181818;stroke-width:1.0;"/><path d="M121.6813,807.7813 L121.6813,806.8438 L128.65,806.8438 L129.5094,809.5313 L128.7281,809.8281 Q128.1188,808.6719 127.5719,808.2344 Q127.0406,807.7813 126.4,807.7813 L124.5406,807.7813 Q124.3688,807.7813 124.2906,807.8438 Q124.2125,807.9063 124.2125,808.0469 L124.2125,811.8906 L125.8688,811.8906 Q126.4156,811.8906 126.6344,811.6406 Q126.8688,811.3906 126.8688,810.8281 L126.8688,810.1719 L127.7906,810.1719 L127.7906,814.6094 L126.8688,814.6094 L126.8688,814.0781 Q126.8688,813.4531 126.6344,813.1406 Q126.4,812.8281 125.8688,812.8281 L124.2125,812.8281 L124.2125,817.5313 Q124.2125,817.6719 124.2906,817.7344 Q124.3688,817.7969 124.5406,817.7969 L126.2594,817.7969 Q127.1656,817.7969 127.7906,817.2969 Q128.4313,816.7813 128.9,815.4063 L129.7125,815.7188 L128.8531,818.7344 L121.6188,818.7344 L121.6188,817.7969 L122.275,817.7969 Q122.5094,817.7969 122.5563,817.75 Q122.6188,817.6875 122.6188,817.5313 L122.6188,808.0469 Q122.6188,807.8906 122.5563,807.8438 Q122.5094,807.7813 122.275,807.7813 L121.6813,807.7813 Z " fill="#000000"/><text fill="#000000" font-family="sans-serif" font-size="14" lengthAdjust="spacing" textLength="92" x="144.85" y="818.7969">Room Booking</text><line style="stroke:#181818;stroke-width:0.5;" x1="85.5" x2="264.5" y1="829" y2="829"/><ellipse cx="95.5" cy="843.8105" fill="#000000" rx="3" ry="3" style="stroke:#000000;stroke-width:1.0;"/><text fill="#000000" font-family="sans-serif" font-size="14" lengthAdjust="spacing" textLength="155" x="104.5" y="848.1074">booking_id : varchar(50)</text><line style="stroke:#181818;stroke-width:1.0;" x1="85.5" x2="264.5" y1="855.6211" y2="855.6211"/><ellipse cx="95.5" cy="870.4316" fill="#000000" rx="3" ry="3" style="stroke:#000000;stroke-width:1.0;"/><text fill="#000000" font-family="sans-serif" font-size="14" lengthAdjust="spacing" textLength="137" x="104.5" y="874.7285">room_id : varchar(50)</text><ellipse cx="95.5" cy="889.0527" fill="#000000" rx="3" ry="3" style="stroke:#000000;stroke-width:1.0;"/><text fill="#000000" font-family="sans-serif" font-size="14" lengthAdjust="spacing" textLength="153" x="104.5" y="893.3496">teacher_id : varchar(50)</text><ellipse cx="95.5" cy="907.6738" fill="#000000" rx="3" ry="3" style="stroke:#000000;stroke-width:1.0;"/><text fill="#000000" font-family="sans-serif" font-size="14" lengthAdjust="spacing" textLength="148" x="104.5" y="911.9707">course_id : varchar(50)</text><ellipse cx="95.5" cy="926.2949" fill="#000000" rx="3" ry="3" style="stroke:#000000;stroke-width:1.0;"/><text fill="#000000" font-family="sans-serif" font-size="14" lengthAdjust="spacing" textLength="112" x="104.5" y="930.5918">week_day : tinyint</text><ellipse cx="95.5" cy="944.916" fill="#000000" rx="3" ry="3" style="stroke:#000000;stroke-width:1.0;"/><text fill="#000000" font-family="sans-serif" font-size="14" lengthAdjust="spacing" textLength="128" x="104.5" y="949.2129">course_start : tinyint</text><ellipse cx="95.5" cy="963.5371" fill="#000000" rx="3" ry="3" style="stroke:#000000;stroke-width:1.0;"/><text fill="#000000" font-family="sans-serif" font-size="14" lengthAdjust="spacing" textLength="138" x="104.5" y="967.834">booking_state : tinyint</text><ellipse cx="95.5" cy="982.1582" fill="#000000" rx="3" ry="3" style="stroke:#000000;stroke-width:1.0;"/><text fill="#000000" font-family="sans-serif" font-size="14" lengthAdjust="spacing" textLength="103" x="104.5" y="986.4551">deadline : DATE</text><ellipse cx="95.5" cy="1000.7793" fill="#000000" rx="3" ry="3" style="stroke:#000000;stroke-width:1.0;"/><text fill="#000000" font-family="sans-serif" font-size="14" lengthAdjust="spacing" textLength="119" x="104.5" y="1005.0762">delete_flag : tinyint</text><ellipse cx="95.5" cy="1019.4004" fill="#000000" rx="3" ry="3" style="stroke:#000000;stroke-width:1.0;"/><text fill="#000000" font-family="sans-serif" font-size="14" lengthAdjust="spacing" textLength="150" x="104.5" y="1023.6973">create_time : timestamp</text><ellipse cx="95.5" cy="1038.0215" fill="#000000" rx="3" ry="3" style="stroke:#000000;stroke-width:1.0;"/><text fill="#000000" font-family="sans-serif" font-size="14" lengthAdjust="spacing" textLength="154" x="104.5" y="1042.3184">update_time : timestamp</text></g><!--class Room Booking History--><g id="elem_Room Booking History"><rect codeLine="61" fill="#F1F1F1" height="290.0742" id="Room Booking History" rx="2.5" ry="2.5" style="stroke:#181818;stroke-width:0.5;" width="197" x="69.5" y="1129"/><ellipse cx="96.2" cy="1145" fill="#ADD1B2" rx="11" ry="11" style="stroke:#181818;stroke-width:1.0;"/><path d="M92.7313,1139.7813 L92.7313,1138.8438 L99.7,1138.8438 L100.5594,1141.5313 L99.7781,1141.8281 Q99.1688,1140.6719 98.6219,1140.2344 Q98.0906,1139.7813 97.45,1139.7813 L95.5906,1139.7813 Q95.4188,1139.7813 95.3406,1139.8438 Q95.2625,1139.9063 95.2625,1140.0469 L95.2625,1143.8906 L96.9188,1143.8906 Q97.4656,1143.8906 97.6844,1143.6406 Q97.9188,1143.3906 97.9188,1142.8281 L97.9188,1142.1719 L98.8406,1142.1719 L98.8406,1146.6094 L97.9188,1146.6094 L97.9188,1146.0781 Q97.9188,1145.4531 97.6844,1145.1406 Q97.45,1144.8281 96.9188,1144.8281 L95.2625,1144.8281 L95.2625,1149.5313 Q95.2625,1149.6719 95.3406,1149.7344 Q95.4188,1149.7969 95.5906,1149.7969 L97.3094,1149.7969 Q98.2156,1149.7969 98.8406,1149.2969 Q99.4813,1148.7813 99.95,1147.4063 L100.7625,1147.7188 L99.9031,1150.7344 L92.6688,1150.7344 L92.6688,1149.7969 L93.325,1149.7969 Q93.5594,1149.7969 93.6063,1149.75 Q93.6688,1149.6875 93.6688,1149.5313 L93.6688,1140.0469 Q93.6688,1139.8906 93.6063,1139.8438 Q93.5594,1139.7813 93.325,1139.7813 L92.7313,1139.7813 Z " fill="#000000"/><text fill="#000000" font-family="sans-serif" font-size="14" lengthAdjust="spacing" textLength="139" x="112.8" y="1150.7969">Room Booking History</text><line style="stroke:#181818;stroke-width:0.5;" x1="70.5" x2="265.5" y1="1161" y2="1161"/><ellipse cx="80.5" cy="1175.8105" fill="#000000" rx="3" ry="3" style="stroke:#000000;stroke-width:1.0;"/><text fill="#000000" font-family="sans-serif" font-size="14" lengthAdjust="spacing" textLength="147" x="89.5" y="1180.1074">history_id : varchar(50)</text><line style="stroke:#181818;stroke-width:1.0;" x1="70.5" x2="265.5" y1="1187.6211" y2="1187.6211"/><ellipse cx="80.5" cy="1202.4316" fill="#000000" rx="3" ry="3" style="stroke:#000000;stroke-width:1.0;"/><text fill="#000000" font-family="sans-serif" font-size="14" lengthAdjust="spacing" textLength="155" x="89.5" y="1206.7285">booking_id : varchar(50)</text><ellipse cx="80.5" cy="1221.0527" fill="#000000" rx="3" ry="3" style="stroke:#000000;stroke-width:1.0;"/><text fill="#000000" font-family="sans-serif" font-size="14" lengthAdjust="spacing" textLength="137" x="89.5" y="1225.3496">room_id : varchar(50)</text><ellipse cx="80.5" cy="1239.6738" fill="#000000" rx="3" ry="3" style="stroke:#000000;stroke-width:1.0;"/><text fill="#000000" font-family="sans-serif" font-size="14" lengthAdjust="spacing" textLength="153" x="89.5" y="1243.9707">teacher_id : varchar(50)</text><ellipse cx="80.5" cy="1258.2949" fill="#000000" rx="3" ry="3" style="stroke:#000000;stroke-width:1.0;"/><text fill="#000000" font-family="sans-serif" font-size="14" lengthAdjust="spacing" textLength="148" x="89.5" y="1262.5918">course_id : varchar(50)</text><ellipse cx="80.5" cy="1276.916" fill="#000000" rx="3" ry="3" style="stroke:#000000;stroke-width:1.0;"/><text fill="#000000" font-family="sans-serif" font-size="14" lengthAdjust="spacing" textLength="112" x="89.5" y="1281.2129">week_day : tinyint</text><ellipse cx="80.5" cy="1295.5371" fill="#000000" rx="3" ry="3" style="stroke:#000000;stroke-width:1.0;"/><text fill="#000000" font-family="sans-serif" font-size="14" lengthAdjust="spacing" textLength="128" x="89.5" y="1299.834">course_start : tinyint</text><ellipse cx="80.5" cy="1314.1582" fill="#000000" rx="3" ry="3" style="stroke:#000000;stroke-width:1.0;"/><text fill="#000000" font-family="sans-serif" font-size="14" lengthAdjust="spacing" textLength="171" x="89.5" y="1318.4551">booking_log : varchar(100)</text><ellipse cx="80.5" cy="1332.7793" fill="#000000" rx="3" ry="3" style="stroke:#000000;stroke-width:1.0;"/><text fill="#000000" font-family="sans-serif" font-size="14" lengthAdjust="spacing" textLength="103" x="89.5" y="1337.0762">deadline : DATE</text><ellipse cx="80.5" cy="1351.4004" fill="#000000" rx="3" ry="3" style="stroke:#000000;stroke-width:1.0;"/><text fill="#000000" font-family="sans-serif" font-size="14" lengthAdjust="spacing" textLength="160" x="89.5" y="1355.6973">process_time : timestamp</text><ellipse cx="80.5" cy="1370.0215" fill="#000000" rx="3" ry="3" style="stroke:#000000;stroke-width:1.0;"/><text fill="#000000" font-family="sans-serif" font-size="14" lengthAdjust="spacing" textLength="119" x="89.5" y="1374.3184">delete_flag : tinyint</text><ellipse cx="80.5" cy="1388.6426" fill="#000000" rx="3" ry="3" style="stroke:#000000;stroke-width:1.0;"/><text fill="#000000" font-family="sans-serif" font-size="14" lengthAdjust="spacing" textLength="150" x="89.5" y="1392.9395">create_time : timestamp</text><ellipse cx="80.5" cy="1407.2637" fill="#000000" rx="3" ry="3" style="stroke:#000000;stroke-width:1.0;"/><text fill="#000000" font-family="sans-serif" font-size="14" lengthAdjust="spacing" textLength="154" x="89.5" y="1411.5605">update_time : timestamp</text></g><!--class Room Occupancy--><g id="elem_Room Occupancy"><rect codeLine="78" fill="#F1F1F1" height="234.2109" id="Room Occupancy" rx="2.5" ry="2.5" style="stroke:#181818;stroke-width:0.5;" width="199" x="306.5" y="806.5"/><ellipse cx="346.25" cy="822.5" fill="#ADD1B2" rx="11" ry="11" style="stroke:#181818;stroke-width:1.0;"/><path d="M342.7813,817.2813 L342.7813,816.3438 L349.75,816.3438 L350.6094,819.0313 L349.8281,819.3281 Q349.2188,818.1719 348.6719,817.7344 Q348.1406,817.2813 347.5,817.2813 L345.6406,817.2813 Q345.4688,817.2813 345.3906,817.3438 Q345.3125,817.4063 345.3125,817.5469 L345.3125,821.3906 L346.9688,821.3906 Q347.5156,821.3906 347.7344,821.1406 Q347.9688,820.8906 347.9688,820.3281 L347.9688,819.6719 L348.8906,819.6719 L348.8906,824.1094 L347.9688,824.1094 L347.9688,823.5781 Q347.9688,822.9531 347.7344,822.6406 Q347.5,822.3281 346.9688,822.3281 L345.3125,822.3281 L345.3125,827.0313 Q345.3125,827.1719 345.3906,827.2344 Q345.4688,827.2969 345.6406,827.2969 L347.3594,827.2969 Q348.2656,827.2969 348.8906,826.7969 Q349.5313,826.2813 350,824.9063 L350.8125,825.2188 L349.9531,828.2344 L342.7188,828.2344 L342.7188,827.2969 L343.375,827.2969 Q343.6094,827.2969 343.6563,827.25 Q343.7188,827.1875 343.7188,827.0313 L343.7188,817.5469 Q343.7188,817.3906 343.6563,817.3438 Q343.6094,817.2813 343.375,817.2813 L342.7813,817.2813 Z " fill="#000000"/><text fill="#000000" font-family="sans-serif" font-size="14" lengthAdjust="spacing" textLength="112" x="365.75" y="828.2969">Room Occupancy</text><line style="stroke:#181818;stroke-width:0.5;" x1="307.5" x2="504.5" y1="838.5" y2="838.5"/><ellipse cx="317.5" cy="853.3105" fill="#000000" rx="3" ry="3" style="stroke:#000000;stroke-width:1.0;"/><text fill="#000000" font-family="sans-serif" font-size="14" lengthAdjust="spacing" textLength="173" x="326.5" y="857.6074">occupancy_id : varchar(50)</text><line style="stroke:#181818;stroke-width:1.0;" x1="307.5" x2="504.5" y1="865.1211" y2="865.1211"/><ellipse cx="317.5" cy="879.9316" fill="#000000" rx="3" ry="3" style="stroke:#000000;stroke-width:1.0;"/><text fill="#000000" font-family="sans-serif" font-size="14" lengthAdjust="spacing" textLength="137" x="326.5" y="884.2285">room_id : varchar(50)</text><ellipse cx="317.5" cy="898.5527" fill="#000000" rx="3" ry="3" style="stroke:#000000;stroke-width:1.0;"/><text fill="#000000" font-family="sans-serif" font-size="14" lengthAdjust="spacing" textLength="112" x="326.5" y="902.8496">week_day : tinyint</text><ellipse cx="317.5" cy="917.1738" fill="#000000" rx="3" ry="3" style="stroke:#000000;stroke-width:1.0;"/><text fill="#000000" font-family="sans-serif" font-size="14" lengthAdjust="spacing" textLength="128" x="326.5" y="921.4707">course_start : tinyint</text><ellipse cx="317.5" cy="935.7949" fill="#000000" rx="3" ry="3" style="stroke:#000000;stroke-width:1.0;"/><text fill="#000000" font-family="sans-serif" font-size="14" lengthAdjust="spacing" textLength="156" x="326.5" y="940.0918">occupancy_state : tinyint</text><ellipse cx="317.5" cy="954.416" fill="#000000" rx="3" ry="3" style="stroke:#000000;stroke-width:1.0;"/><text fill="#000000" font-family="sans-serif" font-size="14" lengthAdjust="spacing" textLength="85" x="326.5" y="958.7129">capacity : INT</text><ellipse cx="317.5" cy="973.0371" fill="#000000" rx="3" ry="3" style="stroke:#000000;stroke-width:1.0;"/><text fill="#000000" font-family="sans-serif" font-size="14" lengthAdjust="spacing" textLength="155" x="326.5" y="977.334">booking_id : varchar(50)</text><ellipse cx="317.5" cy="991.6582" fill="#000000" rx="3" ry="3" style="stroke:#000000;stroke-width:1.0;"/><text fill="#000000" font-family="sans-serif" font-size="14" lengthAdjust="spacing" textLength="119" x="326.5" y="995.9551">delete_flag : tinyint</text><ellipse cx="317.5" cy="1010.2793" fill="#000000" rx="3" ry="3" style="stroke:#000000;stroke-width:1.0;"/><text fill="#000000" font-family="sans-serif" font-size="14" lengthAdjust="spacing" textLength="150" x="326.5" y="1014.5762">create_time : timestamp</text><ellipse cx="317.5" cy="1028.9004" fill="#000000" rx="3" ry="3" style="stroke:#000000;stroke-width:1.0;"/><text fill="#000000" font-family="sans-serif" font-size="14" lengthAdjust="spacing" textLength="154" x="326.5" y="1033.1973">update_time : timestamp</text></g><!--class Student Course--><g id="elem_Student Course"><rect codeLine="92" fill="#F1F1F1" height="159.7266" id="Student Course" rx="2.5" ry="2.5" style="stroke:#181818;stroke-width:0.5;" width="198" x="278" y="282.5"/><ellipse cx="323.25" cy="298.5" fill="#ADD1B2" rx="11" ry="11" style="stroke:#181818;stroke-width:1.0;"/><path d="M319.7813,293.2813 L319.7813,292.3438 L326.75,292.3438 L327.6094,295.0313 L326.8281,295.3281 Q326.2188,294.1719 325.6719,293.7344 Q325.1406,293.2813 324.5,293.2813 L322.6406,293.2813 Q322.4688,293.2813 322.3906,293.3438 Q322.3125,293.4063 322.3125,293.5469 L322.3125,297.3906 L323.9688,297.3906 Q324.5156,297.3906 324.7344,297.1406 Q324.9688,296.8906 324.9688,296.3281 L324.9688,295.6719 L325.8906,295.6719 L325.8906,300.1094 L324.9688,300.1094 L324.9688,299.5781 Q324.9688,298.9531 324.7344,298.6406 Q324.5,298.3281 323.9688,298.3281 L322.3125,298.3281 L322.3125,303.0313 Q322.3125,303.1719 322.3906,303.2344 Q322.4688,303.2969 322.6406,303.2969 L324.3594,303.2969 Q325.2656,303.2969 325.8906,302.7969 Q326.5313,302.2813 327,300.9063 L327.8125,301.2188 L326.9531,304.2344 L319.7188,304.2344 L319.7188,303.2969 L320.375,303.2969 Q320.6094,303.2969 320.6563,303.25 Q320.7188,303.1875 320.7188,303.0313 L320.7188,293.5469 Q320.7188,293.3906 320.6563,293.3438 Q320.6094,293.2813 320.375,293.2813 L319.7813,293.2813 Z " fill="#000000"/><text fill="#000000" font-family="sans-serif" font-size="14" lengthAdjust="spacing" textLength="99" x="343.75" y="304.2969">Student Course</text><line style="stroke:#181818;stroke-width:0.5;" x1="279" x2="475" y1="314.5" y2="314.5"/><ellipse cx="289" cy="329.3105" fill="#000000" rx="3" ry="3" style="stroke:#000000;stroke-width:1.0;"/><text fill="#000000" font-family="sans-serif" font-size="14" lengthAdjust="spacing" textLength="172" x="298" y="333.6074">correlation_id : varchar(50)</text><line style="stroke:#181818;stroke-width:1.0;" x1="279" x2="475" y1="341.1211" y2="341.1211"/><ellipse cx="289" cy="355.9316" fill="#000000" rx="3" ry="3" style="stroke:#000000;stroke-width:1.0;"/><text fill="#000000" font-family="sans-serif" font-size="14" lengthAdjust="spacing" textLength="152" x="298" y="360.2285">student_id : varchar(50)</text><ellipse cx="289" cy="374.5527" fill="#000000" rx="3" ry="3" style="stroke:#000000;stroke-width:1.0;"/><text fill="#000000" font-family="sans-serif" font-size="14" lengthAdjust="spacing" textLength="148" x="298" y="378.8496">course_id : varchar(50)</text><ellipse cx="289" cy="393.1738" fill="#000000" rx="3" ry="3" style="stroke:#000000;stroke-width:1.0;"/><text fill="#000000" font-family="sans-serif" font-size="14" lengthAdjust="spacing" textLength="119" x="298" y="397.4707">delete_flag : tinyint</text><ellipse cx="289" cy="411.7949" fill="#000000" rx="3" ry="3" style="stroke:#000000;stroke-width:1.0;"/><text fill="#000000" font-family="sans-serif" font-size="14" lengthAdjust="spacing" textLength="150" x="298" y="416.0918">create_time : timestamp</text><ellipse cx="289" cy="430.416" fill="#000000" rx="3" ry="3" style="stroke:#000000;stroke-width:1.0;"/><text fill="#000000" font-family="sans-serif" font-size="14" lengthAdjust="spacing" textLength="154" x="298" y="434.7129">update_time : timestamp</text></g><!--link Teacher to Course--><g id="link_Teacher_Course"><path codeLine="103" d="M143.48,461.24 C148.34,486.99 152.4572,508.7241 157.2172,533.9441 " fill="none" id="Teacher-to-Course" style="stroke:#181818;stroke-width:1.0;"/><polygon fill="#181818" points="158.33,539.84,160.5914,530.2543,157.4027,534.9267,152.7302,531.738,158.33,539.84" style="stroke:#181818;stroke-width:1.0;"/><polygon fill="#000000" points="157.9283,505.5586,159.1368,496.1251,153.3612,497.2164,157.9283,505.5586" style="stroke:#000000;stroke-width:1.0;"/><text fill="#000000" font-family="sans-serif" font-size="13" lengthAdjust="spacing" textLength="46" x="166" y="506.0283">teaches</text></g><!--link Student to Student Course--><g id="link_Student_Student Course"><path codeLine="104" d="M377,185.07 C377,216.48 377,245.65 377,276.27 " fill="none" id="Student-to-Student Course" style="stroke:#181818;stroke-width:1.0;"/><polygon fill="#181818" points="377,282.27,381,273.27,377,277.27,373,273.27,377,282.27" style="stroke:#181818;stroke-width:1.0;"/><polygon fill="#000000" points="382,229.6455,384.9389,220.6004,379.0611,220.6004,382,229.6455" style="stroke:#000000;stroke-width:1.0;"/><text fill="#000000" font-family="sans-serif" font-size="13" lengthAdjust="spacing" textLength="38" x="391" y="230.0283">enrolls</text></g><!--link Student Course to Course--><g id="link_Student Course_Course"><path codeLine="105" d="M316.67,442.5 C293.3,473.1 270.0923,503.492 246.0823,534.922 " fill="none" id="Student Course-to-Course" style="stroke:#181818;stroke-width:1.0;"/><polygon fill="#181818" points="242.44,539.69,251.0821,534.9663,245.4753,535.7167,244.7249,530.1098,242.44,539.69" style="stroke:#181818;stroke-width:1.0;"/><polygon fill="#000000" points="284.0349,496.6719,276.2091,502.0764,280.8804,505.6441,284.0349,496.6719" style="stroke:#000000;stroke-width:1.0;"/><text fill="#000000" font-family="sans-serif" font-size="13" lengthAdjust="spacing" textLength="59" x="290" y="506.0283">enrolled in</text></g><!--link Course to Room Booking--><g id="link_Course_Room Booking"><path codeLine="106" d="M175,718.16 C175,742.97 175,764.44 175,790.99 " fill="none" id="Course-to-Room Booking" style="stroke:#181818;stroke-width:1.0;"/><polygon fill="#181818" points="175,796.99,179,787.99,175,791.99,171,787.99,175,796.99" style="stroke:#181818;stroke-width:1.0;"/><polygon fill="#000000" points="180,762.6455,182.9389,753.6004,177.0611,753.6004,180,762.6455" style="stroke:#000000;stroke-width:1.0;"/><text fill="#000000" font-family="sans-serif" font-size="13" lengthAdjust="spacing" textLength="46" x="189" y="763.0283">requires</text></g><!--link Room Booking to Room--><g id="link_Room Booking_Room"><path codeLine="107" d="M258.4,1050.32 C287.93,1094.87 317.1851,1139.0088 344.1951,1179.7588 " fill="none" id="Room Booking-to-Room" style="stroke:#181818;stroke-width:1.0;"/><polygon fill="#181818" points="347.51,1184.76,345.8718,1175.0483,344.7476,1180.5924,339.2036,1179.4682,347.51,1184.76" style="stroke:#181818;stroke-width:1.0;"/><polygon fill="#000000" points="297.7624,1093.8131,295.2148,1084.6501,290.3155,1087.8975,297.7624,1093.8131" style="stroke:#000000;stroke-width:1.0;"/><text fill="#000000" font-family="sans-serif" font-size="13" lengthAdjust="spacing" textLength="35" x="304" y="1095.0283">books</text></g><!--link Room Booking to Room Booking History--><g id="link_Room Booking_Room Booking History"><path codeLine="108" d="M172.47,1050.32 C171.96,1075.76 171.5399,1096.7012 171.0199,1122.7212 " fill="none" id="Room Booking-to-Room Booking History" style="stroke:#181818;stroke-width:1.0;"/><polygon fill="#181818" points="170.9,1128.72,175.079,1119.8017,170.9999,1123.721,167.0806,1119.6419,170.9,1128.72" style="stroke:#181818;stroke-width:1.0;"/><polygon fill="#000000" points="176.8999,1094.6445,180.0193,1085.6601,174.1427,1085.5424,176.8999,1094.6445" style="stroke:#000000;stroke-width:1.0;"/><text fill="#000000" font-family="sans-serif" font-size="13" lengthAdjust="spacing" textLength="21" x="186" y="1095.0283">has</text></g><!--link Room Occupancy to Room--><g id="link_Room Occupancy_Room"><path codeLine="109" d="M406,1040.55 C406,1087.57 406,1134.99 406,1178.75 " fill="none" id="Room Occupancy-to-Room" style="stroke:#181818;stroke-width:1.0;"/><polygon fill="#181818" points="406,1184.75,410,1175.75,406,1179.75,402,1175.75,406,1184.75" style="stroke:#181818;stroke-width:1.0;"/><polygon fill="#000000" points="411,1084.6455,408.0611,1093.6906,413.9389,1093.6906,411,1084.6455" style="stroke:#000000;stroke-width:1.0;"/><text fill="#000000" font-family="sans-serif" font-size="13" lengthAdjust="spacing" textLength="52" x="420" y="1095.0283">occupies</text></g><!--SRC=[pLRBReCm4Bpp5HQNFgH8wQ6NA8hKbzHUMYdDFNBCDbWnDhLD8rJrtskmII1WaaXDMovWp-ooCxin0Qwfpb4u0qnYa27w392vBf6s6tCQeH7wm9B4M9vV3ozAU33OON6SG8rtDNJ46YDB5Y3xEIbMQYrarC-215FMKTGbYe21XlaRmqk3QyfpohN3Y0HiC4tBGekRqZX97PgbKIVw5GJW77hLMMIUjmufkx77eOhbTsZ3w76euloHzgaGoLQuDAizgajAdo22KqoAt2Fqz3ohHvcNQwX9y4dpopf8qft8f892b4bKFhSb6JazFuHDN5Th6srr8a-af6WEkXLYHVdIwbdOXKTGT_iE4Tg1h05MymZdJJcMRYgLkW5KXNNr64UCycBp_cRsy1jUeKUgj92vzIos2uzdNaV_XPrCBDlprtOqbOA0KbtMdSxi5qAo57FYR1RLyiZXFCwOxLlQaxPpylJszYIsk0y9Qfv0KWB3cWhkCSRxjUaRfn-j_mnDNOagfgaAt5y6S-XFd1OJ4TgnLsWI1fNGWj1IRQZ0fM2ifBRWPj8nibo84ELXu80oR_FqCrm9xncLje8Tj0WeTmojwBgFupacJ5ICQp6rqQvd7jlnew32Rm00]--></g></svg>