<?xml version="1.0" encoding="us-ascii" standalone="no"?><svg xmlns="http://www.w3.org/2000/svg" xmlns:xlink="http://www.w3.org/1999/xlink" contentStyleType="text/css" height="1169px" preserveAspectRatio="none" style="width:748px;height:1169px;background:#FFFFFF;" version="1.1" viewBox="0 0 748 1169" width="748px" zoomAndPan="magnify"><defs/><g><!--class Teacher--><g id="elem_Teacher"><rect codeLine="2" fill="#F1F1F1" height="196.9688" id="Teacher" rx="2.5" ry="2.5" style="stroke:#181818;stroke-width:0.5;" width="236" x="194" y="7"/><ellipse cx="281.25" cy="23" fill="#ADD1B2" rx="11" ry="11" style="stroke:#181818;stroke-width:1.0;"/><path d="M280.5938,28.8594 Q278.6094,28.8594 277.4375,27.3906 Q276.2813,25.9063 276.2813,22.8281 Q276.2813,20.2188 277.5,18.4688 Q278.7344,16.7188 280.8594,16.7188 Q281.3594,16.7188 281.8906,16.8594 Q282.3281,17.0469 282.5938,17.0469 Q282.8125,17.0469 282.9063,17 Q283.0156,16.9531 283.4688,16.3594 L284.2344,20.0938 L283.3438,20.3594 Q282.8906,18.9063 282.2813,18.3125 Q281.6875,17.7031 280.7344,17.7031 Q279.5156,17.7031 278.7969,19.1406 Q278.0781,20.5625 278.0781,22.75 Q278.0781,25.1563 278.6875,26.4531 Q279.3125,27.7344 280.6719,27.7344 Q281.625,27.7344 282.3125,27.0469 Q283,26.3438 283.3281,24.8438 L284.2344,25.25 Q283.8281,26.9531 282.8594,27.9063 Q281.9063,28.8594 280.5938,28.8594 Z " fill="#000000"/><text fill="#000000" font-family="sans-serif" font-size="14" lengthAdjust="spacing" textLength="53" x="301.75" y="28.7969">Teacher</text><line style="stroke:#181818;stroke-width:0.5;" x1="195" x2="429" y1="39" y2="39"/><rect fill="none" height="6" style="stroke:#C82930;stroke-width:1.0;" width="6" x="202" y="50.8105"/><text fill="#000000" font-family="sans-serif" font-size="14" lengthAdjust="spacing" textLength="119" x="214" y="58.1074">delete_flag : tinyint</text><rect fill="none" height="6" style="stroke:#C82930;stroke-width:1.0;" width="6" x="202" y="69.4316"/><text fill="#000000" font-family="sans-serif" font-size="14" lengthAdjust="spacing" textLength="150" x="214" y="76.7285">create_time : timestamp</text><rect fill="none" height="6" style="stroke:#C82930;stroke-width:1.0;" width="6" x="202" y="88.0527"/><text fill="#000000" font-family="sans-serif" font-size="14" lengthAdjust="spacing" textLength="154" x="214" y="95.3496">update_time : timestamp</text><line style="stroke:#181818;stroke-width:0.5;" x1="195" x2="429" y1="102.8633" y2="102.8633"/><rect fill="#F24D5C" height="6" style="stroke:#C82930;stroke-width:1.0;" width="6" x="202" y="114.6738"/><text fill="#000000" font-family="sans-serif" font-size="14" lengthAdjust="spacing" textLength="153" x="214" y="121.9707">teacher_id : varchar(50)</text><rect fill="#F24D5C" height="6" style="stroke:#C82930;stroke-width:1.0;" width="6" x="202" y="133.2949"/><text fill="#000000" font-family="sans-serif" font-size="14" lengthAdjust="spacing" textLength="185" x="214" y="140.5918">teacher_name : varchar(100)</text><rect fill="#F24D5C" height="6" style="stroke:#C82930;stroke-width:1.0;" width="6" x="202" y="151.916"/><text fill="#000000" font-family="sans-serif" font-size="14" lengthAdjust="spacing" textLength="198" x="214" y="159.2129">teacher_number : varchar(100)</text><rect fill="#F24D5C" height="6" style="stroke:#C82930;stroke-width:1.0;" width="6" x="202" y="170.5371"/><text fill="#000000" font-family="sans-serif" font-size="14" lengthAdjust="spacing" textLength="210" x="214" y="177.834">teacher_password : varchar(100)</text><rect fill="#F24D5C" height="6" style="stroke:#C82930;stroke-width:1.0;" width="6" x="202" y="189.1582"/><text fill="#000000" font-family="sans-serif" font-size="14" lengthAdjust="spacing" textLength="175" x="214" y="196.4551">teacher_email : varchar(50)</text></g><!--class Student--><g id="elem_Student"><rect codeLine="13" fill="#F1F1F1" height="178.3477" id="Student" rx="2.5" ry="2.5" style="stroke:#181818;stroke-width:0.5;" width="223" x="518.5" y="16.5"/><ellipse cx="601.25" cy="32.5" fill="#ADD1B2" rx="11" ry="11" style="stroke:#181818;stroke-width:1.0;"/><path d="M600.5938,38.3594 Q598.6094,38.3594 597.4375,36.8906 Q596.2813,35.4063 596.2813,32.3281 Q596.2813,29.7188 597.5,27.9688 Q598.7344,26.2188 600.8594,26.2188 Q601.3594,26.2188 601.8906,26.3594 Q602.3281,26.5469 602.5938,26.5469 Q602.8125,26.5469 602.9063,26.5 Q603.0156,26.4531 603.4688,25.8594 L604.2344,29.5938 L603.3438,29.8594 Q602.8906,28.4063 602.2813,27.8125 Q601.6875,27.2031 600.7344,27.2031 Q599.5156,27.2031 598.7969,28.6406 Q598.0781,30.0625 598.0781,32.25 Q598.0781,34.6563 598.6875,35.9531 Q599.3125,37.2344 600.6719,37.2344 Q601.625,37.2344 602.3125,36.5469 Q603,35.8438 603.3281,34.3438 L604.2344,34.75 Q603.8281,36.4531 602.8594,37.4063 Q601.9063,38.3594 600.5938,38.3594 Z " fill="#000000"/><text fill="#000000" font-family="sans-serif" font-size="14" lengthAdjust="spacing" textLength="49" x="621.75" y="38.2969">Student</text><line style="stroke:#181818;stroke-width:0.5;" x1="519.5" x2="740.5" y1="48.5" y2="48.5"/><rect fill="none" height="6" style="stroke:#C82930;stroke-width:1.0;" width="6" x="526.5" y="60.3105"/><text fill="#000000" font-family="sans-serif" font-size="14" lengthAdjust="spacing" textLength="119" x="538.5" y="67.6074">delete_flag : tinyint</text><rect fill="none" height="6" style="stroke:#C82930;stroke-width:1.0;" width="6" x="526.5" y="78.9316"/><text fill="#000000" font-family="sans-serif" font-size="14" lengthAdjust="spacing" textLength="150" x="538.5" y="86.2285">create_time : timestamp</text><rect fill="none" height="6" style="stroke:#C82930;stroke-width:1.0;" width="6" x="526.5" y="97.5527"/><text fill="#000000" font-family="sans-serif" font-size="14" lengthAdjust="spacing" textLength="154" x="538.5" y="104.8496">update_time : timestamp</text><line style="stroke:#181818;stroke-width:0.5;" x1="519.5" x2="740.5" y1="112.3633" y2="112.3633"/><rect fill="#F24D5C" height="6" style="stroke:#C82930;stroke-width:1.0;" width="6" x="526.5" y="124.1738"/><text fill="#000000" font-family="sans-serif" font-size="14" lengthAdjust="spacing" textLength="152" x="538.5" y="131.4707">student_id : varchar(50)</text><rect fill="#F24D5C" height="6" style="stroke:#C82930;stroke-width:1.0;" width="6" x="526.5" y="142.7949"/><text fill="#000000" font-family="sans-serif" font-size="14" lengthAdjust="spacing" textLength="184" x="538.5" y="150.0918">student_name : varchar(100)</text><rect fill="#F24D5C" height="6" style="stroke:#C82930;stroke-width:1.0;" width="6" x="526.5" y="161.416"/><text fill="#000000" font-family="sans-serif" font-size="14" lengthAdjust="spacing" textLength="197" x="538.5" y="168.7129">student_number : varchar(100)</text><rect fill="#F24D5C" height="6" style="stroke:#C82930;stroke-width:1.0;" width="6" x="526.5" y="180.0371"/><text fill="#000000" font-family="sans-serif" font-size="14" lengthAdjust="spacing" textLength="174" x="538.5" y="187.334">student_email : varchar(50)</text></g><!--class Room--><g id="elem_Room"><rect codeLine="23" fill="#F1F1F1" height="178.3477" id="Room" rx="2.5" ry="2.5" style="stroke:#181818;stroke-width:0.5;" width="208" x="7" y="283"/><ellipse cx="88.25" cy="299" fill="#ADD1B2" rx="11" ry="11" style="stroke:#181818;stroke-width:1.0;"/><path d="M87.5938,304.8594 Q85.6094,304.8594 84.4375,303.3906 Q83.2813,301.9063 83.2813,298.8281 Q83.2813,296.2188 84.5,294.4688 Q85.7344,292.7188 87.8594,292.7188 Q88.3594,292.7188 88.8906,292.8594 Q89.3281,293.0469 89.5938,293.0469 Q89.8125,293.0469 89.9063,293 Q90.0156,292.9531 90.4688,292.3594 L91.2344,296.0938 L90.3438,296.3594 Q89.8906,294.9063 89.2813,294.3125 Q88.6875,293.7031 87.7344,293.7031 Q86.5156,293.7031 85.7969,295.1406 Q85.0781,296.5625 85.0781,298.75 Q85.0781,301.1563 85.6875,302.4531 Q86.3125,303.7344 87.6719,303.7344 Q88.625,303.7344 89.3125,303.0469 Q90,302.3438 90.3281,300.8438 L91.2344,301.25 Q90.8281,302.9531 89.8594,303.9063 Q88.9063,304.8594 87.5938,304.8594 Z " fill="#000000"/><text fill="#000000" font-family="sans-serif" font-size="14" lengthAdjust="spacing" textLength="37" x="108.75" y="304.7969">Room</text><line style="stroke:#181818;stroke-width:0.5;" x1="8" x2="214" y1="315" y2="315"/><rect fill="none" height="6" style="stroke:#C82930;stroke-width:1.0;" width="6" x="15" y="326.8105"/><text fill="#000000" font-family="sans-serif" font-size="14" lengthAdjust="spacing" textLength="79" x="27" y="334.1074">capacity : int</text><rect fill="none" height="6" style="stroke:#C82930;stroke-width:1.0;" width="6" x="15" y="345.4316"/><text fill="#000000" font-family="sans-serif" font-size="14" lengthAdjust="spacing" textLength="120" x="27" y="352.7285">room_state : tinyint</text><rect fill="none" height="6" style="stroke:#C82930;stroke-width:1.0;" width="6" x="15" y="364.0527"/><text fill="#000000" font-family="sans-serif" font-size="14" lengthAdjust="spacing" textLength="119" x="27" y="371.3496">delete_flag : tinyint</text><rect fill="none" height="6" style="stroke:#C82930;stroke-width:1.0;" width="6" x="15" y="382.6738"/><text fill="#000000" font-family="sans-serif" font-size="14" lengthAdjust="spacing" textLength="150" x="27" y="389.9707">create_time : timestamp</text><rect fill="none" height="6" style="stroke:#C82930;stroke-width:1.0;" width="6" x="15" y="401.2949"/><text fill="#000000" font-family="sans-serif" font-size="14" lengthAdjust="spacing" textLength="154" x="27" y="408.5918">update_time : timestamp</text><line style="stroke:#181818;stroke-width:0.5;" x1="8" x2="214" y1="416.1055" y2="416.1055"/><rect fill="#F24D5C" height="6" style="stroke:#C82930;stroke-width:1.0;" width="6" x="15" y="427.916"/><text fill="#000000" font-family="sans-serif" font-size="14" lengthAdjust="spacing" textLength="137" x="27" y="435.2129">room_id : varchar(50)</text><rect fill="#F24D5C" height="6" style="stroke:#C82930;stroke-width:1.0;" width="6" x="15" y="446.5371"/><text fill="#000000" font-family="sans-serif" font-size="14" lengthAdjust="spacing" textLength="182" x="27" y="453.834">room_number : varchar(100)</text></g><!--class RoomBooking--><g id="elem_RoomBooking"><rect codeLine="33" fill="#F1F1F1" height="252.832" id="RoomBooking" rx="2.5" ry="2.5" style="stroke:#181818;stroke-width:0.5;" width="181" x="194.5" y="540"/><ellipse cx="236.95" cy="556" fill="#ADD1B2" rx="11" ry="11" style="stroke:#181818;stroke-width:1.0;"/><path d="M236.2938,561.8594 Q234.3094,561.8594 233.1375,560.3906 Q231.9813,558.9063 231.9813,555.8281 Q231.9813,553.2188 233.2,551.4688 Q234.4344,549.7188 236.5594,549.7188 Q237.0594,549.7188 237.5906,549.8594 Q238.0281,550.0469 238.2938,550.0469 Q238.5125,550.0469 238.6063,550 Q238.7156,549.9531 239.1688,549.3594 L239.9344,553.0938 L239.0438,553.3594 Q238.5906,551.9063 237.9813,551.3125 Q237.3875,550.7031 236.4344,550.7031 Q235.2156,550.7031 234.4969,552.1406 Q233.7781,553.5625 233.7781,555.75 Q233.7781,558.1563 234.3875,559.4531 Q235.0125,560.7344 236.3719,560.7344 Q237.325,560.7344 238.0125,560.0469 Q238.7,559.3438 239.0281,557.8438 L239.9344,558.25 Q239.5281,559.9531 238.5594,560.9063 Q237.6063,561.8594 236.2938,561.8594 Z " fill="#000000"/><text fill="#000000" font-family="sans-serif" font-size="14" lengthAdjust="spacing" textLength="88" x="257.05" y="561.7969">RoomBooking</text><line style="stroke:#181818;stroke-width:0.5;" x1="195.5" x2="374.5" y1="572" y2="572"/><rect fill="none" height="6" style="stroke:#C82930;stroke-width:1.0;" width="6" x="202.5" y="583.8105"/><text fill="#000000" font-family="sans-serif" font-size="14" lengthAdjust="spacing" textLength="112" x="214.5" y="591.1074">week_day : tinyint</text><rect fill="none" height="6" style="stroke:#C82930;stroke-width:1.0;" width="6" x="202.5" y="602.4316"/><text fill="#000000" font-family="sans-serif" font-size="14" lengthAdjust="spacing" textLength="128" x="214.5" y="609.7285">course_start : tinyint</text><rect fill="none" height="6" style="stroke:#C82930;stroke-width:1.0;" width="6" x="202.5" y="621.0527"/><text fill="#000000" font-family="sans-serif" font-size="14" lengthAdjust="spacing" textLength="138" x="214.5" y="628.3496">booking_state : tinyint</text><rect fill="none" height="6" style="stroke:#C82930;stroke-width:1.0;" width="6" x="202.5" y="639.6738"/><text fill="#000000" font-family="sans-serif" font-size="14" lengthAdjust="spacing" textLength="94" x="214.5" y="646.9707">deadline : date</text><rect fill="none" height="6" style="stroke:#C82930;stroke-width:1.0;" width="6" x="202.5" y="658.2949"/><text fill="#000000" font-family="sans-serif" font-size="14" lengthAdjust="spacing" textLength="119" x="214.5" y="665.5918">delete_flag : tinyint</text><rect fill="none" height="6" style="stroke:#C82930;stroke-width:1.0;" width="6" x="202.5" y="676.916"/><text fill="#000000" font-family="sans-serif" font-size="14" lengthAdjust="spacing" textLength="150" x="214.5" y="684.2129">create_time : timestamp</text><rect fill="none" height="6" style="stroke:#C82930;stroke-width:1.0;" width="6" x="202.5" y="695.5371"/><text fill="#000000" font-family="sans-serif" font-size="14" lengthAdjust="spacing" textLength="154" x="214.5" y="702.834">update_time : timestamp</text><line style="stroke:#181818;stroke-width:0.5;" x1="195.5" x2="374.5" y1="710.3477" y2="710.3477"/><rect fill="#F24D5C" height="6" style="stroke:#C82930;stroke-width:1.0;" width="6" x="202.5" y="722.1582"/><text fill="#000000" font-family="sans-serif" font-size="14" lengthAdjust="spacing" textLength="155" x="214.5" y="729.4551">booking_id : varchar(50)</text><rect fill="#F24D5C" height="6" style="stroke:#C82930;stroke-width:1.0;" width="6" x="202.5" y="740.7793"/><text fill="#000000" font-family="sans-serif" font-size="14" lengthAdjust="spacing" textLength="145" x="214.5" y="748.0762">room_id : varchar(100)</text><rect fill="#F24D5C" height="6" style="stroke:#C82930;stroke-width:1.0;" width="6" x="202.5" y="759.4004"/><text fill="#000000" font-family="sans-serif" font-size="14" lengthAdjust="spacing" textLength="153" x="214.5" y="766.6973">teacher_id : varchar(50)</text><rect fill="#F24D5C" height="6" style="stroke:#C82930;stroke-width:1.0;" width="6" x="202.5" y="778.0215"/><text fill="#000000" font-family="sans-serif" font-size="14" lengthAdjust="spacing" textLength="148" x="214.5" y="785.3184">course_id : varchar(50)</text></g><!--class Course--><g id="elem_Course"><rect codeLine="47" fill="#F1F1F1" height="178.3477" id="Course" rx="2.5" ry="2.5" style="stroke:#181818;stroke-width:0.5;" width="206" x="381" y="283"/><ellipse cx="456.75" cy="299" fill="#ADD1B2" rx="11" ry="11" style="stroke:#181818;stroke-width:1.0;"/><path d="M456.0938,304.8594 Q454.1094,304.8594 452.9375,303.3906 Q451.7813,301.9063 451.7813,298.8281 Q451.7813,296.2188 453,294.4688 Q454.2344,292.7188 456.3594,292.7188 Q456.8594,292.7188 457.3906,292.8594 Q457.8281,293.0469 458.0938,293.0469 Q458.3125,293.0469 458.4063,293 Q458.5156,292.9531 458.9688,292.3594 L459.7344,296.0938 L458.8438,296.3594 Q458.3906,294.9063 457.7813,294.3125 Q457.1875,293.7031 456.2344,293.7031 Q455.0156,293.7031 454.2969,295.1406 Q453.5781,296.5625 453.5781,298.75 Q453.5781,301.1563 454.1875,302.4531 Q454.8125,303.7344 456.1719,303.7344 Q457.125,303.7344 457.8125,303.0469 Q458.5,302.3438 458.8281,300.8438 L459.7344,301.25 Q459.3281,302.9531 458.3594,303.9063 Q457.4063,304.8594 456.0938,304.8594 Z " fill="#000000"/><text fill="#000000" font-family="sans-serif" font-size="14" lengthAdjust="spacing" textLength="46" x="477.25" y="304.7969">Course</text><line style="stroke:#181818;stroke-width:0.5;" x1="382" x2="586" y1="315" y2="315"/><rect fill="none" height="6" style="stroke:#C82930;stroke-width:1.0;" width="6" x="389" y="326.8105"/><text fill="#000000" font-family="sans-serif" font-size="14" lengthAdjust="spacing" textLength="109" x="401" y="334.1074">student_num : int</text><rect fill="none" height="6" style="stroke:#C82930;stroke-width:1.0;" width="6" x="389" y="345.4316"/><text fill="#000000" font-family="sans-serif" font-size="14" lengthAdjust="spacing" textLength="119" x="401" y="352.7285">delete_flag : tinyint</text><rect fill="none" height="6" style="stroke:#C82930;stroke-width:1.0;" width="6" x="389" y="364.0527"/><text fill="#000000" font-family="sans-serif" font-size="14" lengthAdjust="spacing" textLength="150" x="401" y="371.3496">create_time : timestamp</text><rect fill="none" height="6" style="stroke:#C82930;stroke-width:1.0;" width="6" x="389" y="382.6738"/><text fill="#000000" font-family="sans-serif" font-size="14" lengthAdjust="spacing" textLength="154" x="401" y="389.9707">update_time : timestamp</text><line style="stroke:#181818;stroke-width:0.5;" x1="382" x2="586" y1="397.4844" y2="397.4844"/><rect fill="#F24D5C" height="6" style="stroke:#C82930;stroke-width:1.0;" width="6" x="389" y="409.2949"/><text fill="#000000" font-family="sans-serif" font-size="14" lengthAdjust="spacing" textLength="148" x="401" y="416.5918">course_id : varchar(50)</text><rect fill="#F24D5C" height="6" style="stroke:#C82930;stroke-width:1.0;" width="6" x="389" y="427.916"/><text fill="#000000" font-family="sans-serif" font-size="14" lengthAdjust="spacing" textLength="153" x="401" y="435.2129">teacher_id : varchar(50)</text><rect fill="#F24D5C" height="6" style="stroke:#C82930;stroke-width:1.0;" width="6" x="389" y="446.5371"/><text fill="#000000" font-family="sans-serif" font-size="14" lengthAdjust="spacing" textLength="180" x="401" y="453.834">course_name : varchar(100)</text></g><!--class RoomBookingHistory--><g id="elem_RoomBookingHistory"><rect codeLine="57" fill="#F1F1F1" height="290.0742" id="RoomBookingHistory" rx="2.5" ry="2.5" style="stroke:#181818;stroke-width:0.5;" width="197" x="245.5" y="872"/><ellipse cx="275.8" cy="888" fill="#ADD1B2" rx="11" ry="11" style="stroke:#181818;stroke-width:1.0;"/><path d="M275.1438,893.8594 Q273.1594,893.8594 271.9875,892.3906 Q270.8313,890.9063 270.8313,887.8281 Q270.8313,885.2188 272.05,883.4688 Q273.2844,881.7188 275.4094,881.7188 Q275.9094,881.7188 276.4406,881.8594 Q276.8781,882.0469 277.1438,882.0469 Q277.3625,882.0469 277.4563,882 Q277.5656,881.9531 278.0188,881.3594 L278.7844,885.0938 L277.8938,885.3594 Q277.4406,883.9063 276.8313,883.3125 Q276.2375,882.7031 275.2844,882.7031 Q274.0656,882.7031 273.3469,884.1406 Q272.6281,885.5625 272.6281,887.75 Q272.6281,890.1563 273.2375,891.4531 Q273.8625,892.7344 275.2219,892.7344 Q276.175,892.7344 276.8625,892.0469 Q277.55,891.3438 277.8781,889.8438 L278.7844,890.25 Q278.3781,891.9531 277.4094,892.9063 Q276.4563,893.8594 275.1438,893.8594 Z " fill="#000000"/><text fill="#000000" font-family="sans-serif" font-size="14" lengthAdjust="spacing" textLength="131" x="293.2" y="893.7969">RoomBookingHistory</text><line style="stroke:#181818;stroke-width:0.5;" x1="246.5" x2="441.5" y1="904" y2="904"/><rect fill="none" height="6" style="stroke:#C82930;stroke-width:1.0;" width="6" x="253.5" y="915.8105"/><text fill="#000000" font-family="sans-serif" font-size="14" lengthAdjust="spacing" textLength="112" x="265.5" y="923.1074">week_day : tinyint</text><rect fill="none" height="6" style="stroke:#C82930;stroke-width:1.0;" width="6" x="253.5" y="934.4316"/><text fill="#000000" font-family="sans-serif" font-size="14" lengthAdjust="spacing" textLength="128" x="265.5" y="941.7285">course_start : tinyint</text><rect fill="none" height="6" style="stroke:#C82930;stroke-width:1.0;" width="6" x="253.5" y="953.0527"/><text fill="#000000" font-family="sans-serif" font-size="14" lengthAdjust="spacing" textLength="94" x="265.5" y="960.3496">deadline : date</text><rect fill="none" height="6" style="stroke:#C82930;stroke-width:1.0;" width="6" x="253.5" y="971.6738"/><text fill="#000000" font-family="sans-serif" font-size="14" lengthAdjust="spacing" textLength="160" x="265.5" y="978.9707">process_time : timestamp</text><rect fill="none" height="6" style="stroke:#C82930;stroke-width:1.0;" width="6" x="253.5" y="990.2949"/><text fill="#000000" font-family="sans-serif" font-size="14" lengthAdjust="spacing" textLength="119" x="265.5" y="997.5918">delete_flag : tinyint</text><rect fill="none" height="6" style="stroke:#C82930;stroke-width:1.0;" width="6" x="253.5" y="1008.916"/><text fill="#000000" font-family="sans-serif" font-size="14" lengthAdjust="spacing" textLength="150" x="265.5" y="1016.2129">create_time : timestamp</text><rect fill="none" height="6" style="stroke:#C82930;stroke-width:1.0;" width="6" x="253.5" y="1027.5371"/><text fill="#000000" font-family="sans-serif" font-size="14" lengthAdjust="spacing" textLength="154" x="265.5" y="1034.834">update_time : timestamp</text><line style="stroke:#181818;stroke-width:0.5;" x1="246.5" x2="441.5" y1="1042.3477" y2="1042.3477"/><rect fill="#F24D5C" height="6" style="stroke:#C82930;stroke-width:1.0;" width="6" x="253.5" y="1054.1582"/><text fill="#000000" font-family="sans-serif" font-size="14" lengthAdjust="spacing" textLength="147" x="265.5" y="1061.4551">history_id : varchar(50)</text><rect fill="#F24D5C" height="6" style="stroke:#C82930;stroke-width:1.0;" width="6" x="253.5" y="1072.7793"/><text fill="#000000" font-family="sans-serif" font-size="14" lengthAdjust="spacing" textLength="155" x="265.5" y="1080.0762">booking_id : varchar(50)</text><rect fill="#F24D5C" height="6" style="stroke:#C82930;stroke-width:1.0;" width="6" x="253.5" y="1091.4004"/><text fill="#000000" font-family="sans-serif" font-size="14" lengthAdjust="spacing" textLength="145" x="265.5" y="1098.6973">room_id : varchar(100)</text><rect fill="#F24D5C" height="6" style="stroke:#C82930;stroke-width:1.0;" width="6" x="253.5" y="1110.0215"/><text fill="#000000" font-family="sans-serif" font-size="14" lengthAdjust="spacing" textLength="153" x="265.5" y="1117.3184">teacher_id : varchar(50)</text><rect fill="#F24D5C" height="6" style="stroke:#C82930;stroke-width:1.0;" width="6" x="253.5" y="1128.6426"/><text fill="#000000" font-family="sans-serif" font-size="14" lengthAdjust="spacing" textLength="148" x="265.5" y="1135.9395">course_id : varchar(50)</text><rect fill="#F24D5C" height="6" style="stroke:#C82930;stroke-width:1.0;" width="6" x="253.5" y="1147.2637"/><text fill="#000000" font-family="sans-serif" font-size="14" lengthAdjust="spacing" textLength="171" x="265.5" y="1154.5605">booking_log : varchar(100)</text></g><!--class RoomOccupancy--><g id="elem_RoomOccupancy"><rect codeLine="73" fill="#F1F1F1" height="234.2109" id="RoomOccupancy" rx="2.5" ry="2.5" style="stroke:#181818;stroke-width:0.5;" width="199" x="11.5" y="900"/><ellipse cx="53.05" cy="916" fill="#ADD1B2" rx="11" ry="11" style="stroke:#181818;stroke-width:1.0;"/><path d="M52.3938,921.8594 Q50.4094,921.8594 49.2375,920.3906 Q48.0813,918.9063 48.0813,915.8281 Q48.0813,913.2188 49.3,911.4688 Q50.5344,909.7188 52.6594,909.7188 Q53.1594,909.7188 53.6906,909.8594 Q54.1281,910.0469 54.3938,910.0469 Q54.6125,910.0469 54.7063,910 Q54.8156,909.9531 55.2688,909.3594 L56.0344,913.0938 L55.1438,913.3594 Q54.6906,911.9063 54.0813,911.3125 Q53.4875,910.7031 52.5344,910.7031 Q51.3156,910.7031 50.5969,912.1406 Q49.8781,913.5625 49.8781,915.75 Q49.8781,918.1563 50.4875,919.4531 Q51.1125,920.7344 52.4719,920.7344 Q53.425,920.7344 54.1125,920.0469 Q54.8,919.3438 55.1281,917.8438 L56.0344,918.25 Q55.6281,919.9531 54.6594,920.9063 Q53.7063,921.8594 52.3938,921.8594 Z " fill="#000000"/><text fill="#000000" font-family="sans-serif" font-size="14" lengthAdjust="spacing" textLength="108" x="72.95" y="921.7969">RoomOccupancy</text><line style="stroke:#181818;stroke-width:0.5;" x1="12.5" x2="209.5" y1="932" y2="932"/><rect fill="none" height="6" style="stroke:#C82930;stroke-width:1.0;" width="6" x="19.5" y="943.8105"/><text fill="#000000" font-family="sans-serif" font-size="14" lengthAdjust="spacing" textLength="112" x="31.5" y="951.1074">week_day : tinyint</text><rect fill="none" height="6" style="stroke:#C82930;stroke-width:1.0;" width="6" x="19.5" y="962.4316"/><text fill="#000000" font-family="sans-serif" font-size="14" lengthAdjust="spacing" textLength="128" x="31.5" y="969.7285">course_start : tinyint</text><rect fill="none" height="6" style="stroke:#C82930;stroke-width:1.0;" width="6" x="19.5" y="981.0527"/><text fill="#000000" font-family="sans-serif" font-size="14" lengthAdjust="spacing" textLength="156" x="31.5" y="988.3496">occupancy_state : tinyint</text><rect fill="none" height="6" style="stroke:#C82930;stroke-width:1.0;" width="6" x="19.5" y="999.6738"/><text fill="#000000" font-family="sans-serif" font-size="14" lengthAdjust="spacing" textLength="79" x="31.5" y="1006.9707">capacity : int</text><rect fill="none" height="6" style="stroke:#C82930;stroke-width:1.0;" width="6" x="19.5" y="1018.2949"/><text fill="#000000" font-family="sans-serif" font-size="14" lengthAdjust="spacing" textLength="119" x="31.5" y="1025.5918">delete_flag : tinyint</text><rect fill="none" height="6" style="stroke:#C82930;stroke-width:1.0;" width="6" x="19.5" y="1036.916"/><text fill="#000000" font-family="sans-serif" font-size="14" lengthAdjust="spacing" textLength="150" x="31.5" y="1044.2129">create_time : timestamp</text><rect fill="none" height="6" style="stroke:#C82930;stroke-width:1.0;" width="6" x="19.5" y="1055.5371"/><text fill="#000000" font-family="sans-serif" font-size="14" lengthAdjust="spacing" textLength="154" x="31.5" y="1062.834">update_time : timestamp</text><line style="stroke:#181818;stroke-width:0.5;" x1="12.5" x2="209.5" y1="1070.3477" y2="1070.3477"/><rect fill="#F24D5C" height="6" style="stroke:#C82930;stroke-width:1.0;" width="6" x="19.5" y="1082.1582"/><text fill="#000000" font-family="sans-serif" font-size="14" lengthAdjust="spacing" textLength="173" x="31.5" y="1089.4551">occupancy_id : varchar(50)</text><rect fill="#F24D5C" height="6" style="stroke:#C82930;stroke-width:1.0;" width="6" x="19.5" y="1100.7793"/><text fill="#000000" font-family="sans-serif" font-size="14" lengthAdjust="spacing" textLength="137" x="31.5" y="1108.0762">room_id : varchar(50)</text><rect fill="#F24D5C" height="6" style="stroke:#C82930;stroke-width:1.0;" width="6" x="19.5" y="1119.4004"/><text fill="#000000" font-family="sans-serif" font-size="14" lengthAdjust="spacing" textLength="155" x="31.5" y="1126.6973">booking_id : varchar(50)</text></g><!--class StudentCourse--><g id="elem_StudentCourse"><rect codeLine="86" fill="#F1F1F1" height="159.7266" id="StudentCourse" rx="2.5" ry="2.5" style="stroke:#181818;stroke-width:0.5;" width="198" x="484" y="586.5"/><ellipse cx="531.25" cy="602.5" fill="#ADD1B2" rx="11" ry="11" style="stroke:#181818;stroke-width:1.0;"/><path d="M530.5938,608.3594 Q528.6094,608.3594 527.4375,606.8906 Q526.2813,605.4063 526.2813,602.3281 Q526.2813,599.7188 527.5,597.9688 Q528.7344,596.2188 530.8594,596.2188 Q531.3594,596.2188 531.8906,596.3594 Q532.3281,596.5469 532.5938,596.5469 Q532.8125,596.5469 532.9063,596.5 Q533.0156,596.4531 533.4688,595.8594 L534.2344,599.5938 L533.3438,599.8594 Q532.8906,598.4063 532.2813,597.8125 Q531.6875,597.2031 530.7344,597.2031 Q529.5156,597.2031 528.7969,598.6406 Q528.0781,600.0625 528.0781,602.25 Q528.0781,604.6563 528.6875,605.9531 Q529.3125,607.2344 530.6719,607.2344 Q531.625,607.2344 532.3125,606.5469 Q533,605.8438 533.3281,604.3438 L534.2344,604.75 Q533.8281,606.4531 532.8594,607.4063 Q531.9063,608.3594 530.5938,608.3594 Z " fill="#000000"/><text fill="#000000" font-family="sans-serif" font-size="14" lengthAdjust="spacing" textLength="95" x="551.75" y="608.2969">StudentCourse</text><line style="stroke:#181818;stroke-width:0.5;" x1="485" x2="681" y1="618.5" y2="618.5"/><rect fill="none" height="6" style="stroke:#C82930;stroke-width:1.0;" width="6" x="492" y="630.3105"/><text fill="#000000" font-family="sans-serif" font-size="14" lengthAdjust="spacing" textLength="119" x="504" y="637.6074">delete_flag : tinyint</text><rect fill="none" height="6" style="stroke:#C82930;stroke-width:1.0;" width="6" x="492" y="648.9316"/><text fill="#000000" font-family="sans-serif" font-size="14" lengthAdjust="spacing" textLength="150" x="504" y="656.2285">create_time : timestamp</text><rect fill="none" height="6" style="stroke:#C82930;stroke-width:1.0;" width="6" x="492" y="667.5527"/><text fill="#000000" font-family="sans-serif" font-size="14" lengthAdjust="spacing" textLength="154" x="504" y="674.8496">update_time : timestamp</text><line style="stroke:#181818;stroke-width:0.5;" x1="485" x2="681" y1="682.3633" y2="682.3633"/><rect fill="#F24D5C" height="6" style="stroke:#C82930;stroke-width:1.0;" width="6" x="492" y="694.1738"/><text fill="#000000" font-family="sans-serif" font-size="14" lengthAdjust="spacing" textLength="172" x="504" y="701.4707">correlation_id : varchar(50)</text><rect fill="#F24D5C" height="6" style="stroke:#C82930;stroke-width:1.0;" width="6" x="492" y="712.7949"/><text fill="#000000" font-family="sans-serif" font-size="14" lengthAdjust="spacing" textLength="152" x="504" y="720.0918">student_id : varchar(50)</text><rect fill="#F24D5C" height="6" style="stroke:#C82930;stroke-width:1.0;" width="6" x="492" y="731.416"/><text fill="#000000" font-family="sans-serif" font-size="14" lengthAdjust="spacing" textLength="148" x="504" y="738.7129">course_id : varchar(50)</text></g><!--link Teacher to RoomBooking--><g id="link_Teacher_RoomBooking"><path codeLine="95" d="M306.26,204.05 C304.81,229.73 303.29,257.41 302,283 C297.67,368.64 293.39,465.1 290.2,539.72 " fill="none" id="Teacher-RoomBooking" style="stroke:#181818;stroke-width:1.0;"/><polygon fill="#000000" points="306.7611,377.1398,310.1289,368.2455,304.2577,367.9646,306.7611,377.1398" style="stroke:#000000;stroke-width:1.0;"/><text fill="#000000" font-family="sans-serif" font-size="13" lengthAdjust="spacing" textLength="46" x="316" y="377.5283">teaches</text><text fill="#000000" font-family="sans-serif" font-size="13" lengthAdjust="spacing" textLength="7" x="298.5814" y="225.9516">1</text><text fill="#000000" font-family="sans-serif" font-size="13" lengthAdjust="spacing" textLength="20" x="269.9225" y="528.9407">0..*</text></g><!--link Teacher to Course--><g id="link_Teacher_Course"><path codeLine="96" d="M375.56,204.24 C392.3,229.99 410.27,257.62 426.67,282.84 " fill="none" id="Teacher-Course" style="stroke:#181818;stroke-width:1.0;"/><polygon fill="#000000" points="411.7257,247.8372,409.2587,238.6522,404.331,241.8564,411.7257,247.8372" style="stroke:#000000;stroke-width:1.0;"/><text fill="#000000" font-family="sans-serif" font-size="13" lengthAdjust="spacing" textLength="31" x="418" y="249.0283">offers</text><text fill="#000000" font-family="sans-serif" font-size="13" lengthAdjust="spacing" textLength="7" x="372.9707" y="226.1556">1</text><text fill="#000000" font-family="sans-serif" font-size="13" lengthAdjust="spacing" textLength="20" x="401.0942" y="271.7785">0..*</text></g><!--link Room to RoomBooking--><g id="link_Room_RoomBooking"><path codeLine="98" d="M163.44,461.16 C178.2,485.97 194.55,513.44 210.34,539.99 " fill="none" id="Room-RoomBooking" style="stroke:#181818;stroke-width:1.0;"/><polygon fill="#000000" points="195.5565,504.9425,193.4575,495.6665,188.406,498.6718,195.5565,504.9425" style="stroke:#000000;stroke-width:1.0;"/><text fill="#000000" font-family="sans-serif" font-size="13" lengthAdjust="spacing" textLength="49" x="202" y="506.0283">contains</text><text fill="#000000" font-family="sans-serif" font-size="13" lengthAdjust="spacing" textLength="7" x="160.4928" y="483.2734">1</text><text fill="#000000" font-family="sans-serif" font-size="13" lengthAdjust="spacing" textLength="20" x="185.181" y="528.8051">0..*</text></g><!--link Room to RoomOccupancy--><g id="link_Room_RoomOccupancy"><path codeLine="99" d="M111,461.06 C111,574.99 111,773.79 111,899.95 " fill="none" id="Room-RoomOccupancy" style="stroke:#181818;stroke-width:1.0;"/><polygon fill="#000000" points="116,671.6455,118.9389,662.6004,113.0611,662.6004,116,671.6455" style="stroke:#000000;stroke-width:1.0;"/><text fill="#000000" font-family="sans-serif" font-size="13" lengthAdjust="spacing" textLength="21" x="125" y="672.0283">has</text><text fill="#000000" font-family="sans-serif" font-size="13" lengthAdjust="spacing" textLength="7" x="103.6992" y="483.4699">1</text><text fill="#000000" font-family="sans-serif" font-size="13" lengthAdjust="spacing" textLength="20" x="90.3281" y="888.5456">0..*</text></g><!--link RoomBooking to RoomBookingHistory--><g id="link_RoomBooking_RoomBookingHistory"><path codeLine="101" d="M306.3,793.32 C310.61,818.76 315.17,845.7 319.57,871.72 " fill="none" id="RoomBooking-RoomBookingHistory" style="stroke:#181818;stroke-width:1.0;"/><polygon fill="#000000" points="320.8344,837.5754,322.2226,828.1667,316.4272,829.1476,320.8344,837.5754" style="stroke:#000000;stroke-width:1.0;"/><text fill="#000000" font-family="sans-serif" font-size="13" lengthAdjust="spacing" textLength="62" x="329" y="838.0283">hasHistory</text><text fill="#000000" font-family="sans-serif" font-size="13" lengthAdjust="spacing" textLength="20" x="286.918" y="814.7612">0..*</text><text fill="#000000" font-family="sans-serif" font-size="13" lengthAdjust="spacing" textLength="22" x="295.7431" y="860.8246">0..1</text></g><!--link RoomBooking to RoomOccupancy--><g id="link_RoomBooking_RoomOccupancy"><path codeLine="102" d="M222.18,793.32 C204.81,828.12 186.03,865.72 168.95,899.94 " fill="none" id="RoomBooking-RoomOccupancy" style="stroke:#181818;stroke-width:1.0;"/><text fill="#000000" font-family="sans-serif" font-size="13" lengthAdjust="spacing" textLength="53" x="205" y="838.0283">relatesTo</text><text fill="#000000" font-family="sans-serif" font-size="13" lengthAdjust="spacing" textLength="7" x="211.5531" y="814.7612">1</text><text fill="#000000" font-family="sans-serif" font-size="13" lengthAdjust="spacing" textLength="20" x="152.0218" y="888.9272">0..*</text></g><!--link Course to RoomBooking--><g id="link_Course_RoomBooking"><path codeLine="103" d="M424.02,461.16 C407.14,485.97 388.45,513.44 370.39,539.99 " fill="none" id="Course-RoomBooking" style="stroke:#181818;stroke-width:1.0;"/><polygon fill="#000000" points="405.1875,504.7795,412.7052,498.9542,407.8454,495.6479,405.1875,504.7795" style="stroke:#000000;stroke-width:1.0;"/><text fill="#000000" font-family="sans-serif" font-size="13" lengthAdjust="spacing" textLength="53" x="417" y="506.0283">relatedTo</text><text fill="#000000" font-family="sans-serif" font-size="13" lengthAdjust="spacing" textLength="7" x="411.7631" y="483.2734">1</text><text fill="#000000" font-family="sans-serif" font-size="13" lengthAdjust="spacing" textLength="20" x="354.9841" y="528.8051">0..*</text></g><!--link Student to Course--><g id="link_Student_Course"><path codeLine="105" d="M581.38,194.57 C565.71,222.98 548.33,254.45 532.65,282.86 " fill="none" id="Student-Course" style="stroke:#181818;stroke-width:1.0;"/><polygon fill="#000000" points="559.5839,248.023,566.5277,241.5242,561.3816,238.6839,559.5839,248.023" style="stroke:#000000;stroke-width:1.0;"/><text fill="#000000" font-family="sans-serif" font-size="13" lengthAdjust="spacing" textLength="55" x="571" y="249.0283">enrolledIn</text><text fill="#000000" font-family="sans-serif" font-size="13" lengthAdjust="spacing" textLength="15" x="561.5572" y="216.9808">0..</text><text fill="#000000" font-family="sans-serif" font-size="13" lengthAdjust="spacing" textLength="15" x="521.0577" y="271.8002">0..</text></g><!--link Student to StudentCourse--><g id="link_Student_StudentCourse"><path codeLine="106" d="M633.91,194.62 C634.36,207.82 634.75,221.26 635,234 C637.43,357.72 615.4,500.01 599.26,586.31 " fill="none" id="Student-StudentCourse" style="stroke:#181818;stroke-width:1.0;"/><polygon fill="#000000" points="638.5594,377.1261,642.2839,368.3751,636.429,367.8572,638.5594,377.1261" style="stroke:#000000;stroke-width:1.0;"/><text fill="#000000" font-family="sans-serif" font-size="13" lengthAdjust="spacing" textLength="32" x="648" y="377.5283">takes</text><text fill="#000000" font-family="sans-serif" font-size="13" lengthAdjust="spacing" textLength="15" x="618.6127" y="216.7301">0..</text><text fill="#000000" font-family="sans-serif" font-size="13" lengthAdjust="spacing" textLength="15" x="585.0676" y="575.1882">0..</text></g><!--link Course to StudentCourse--><g id="link_Course_StudentCourse"><path codeLine="107" d="M513.84,461.16 C527.33,501.02 543.15,547.77 556.25,586.48 " fill="none" id="Course-StudentCourse" style="stroke:#181818;stroke-width:1.0;"/><polygon fill="#000000" points="533.6028,505.3817,533.4872,495.8718,527.9195,497.756,533.6028,505.3817" style="stroke:#000000;stroke-width:1.0;"/><text fill="#000000" font-family="sans-serif" font-size="13" lengthAdjust="spacing" textLength="48" x="541" y="506.0283">includes</text><text fill="#000000" font-family="sans-serif" font-size="13" lengthAdjust="spacing" textLength="7" x="509.0213" y="483.2734">1</text><text fill="#000000" font-family="sans-serif" font-size="13" lengthAdjust="spacing" textLength="20" x="532.8621" y="575.3739">0..*</text></g><!--SRC=[rLOzJyCm4DtpAwnCWDIg7LWwCC024n9qhmxxsbfrxCXsg2B4VyTnFaf9x5QWWCWINTux-zxpsGuLO0nP8j0jQlAM4FTCYAtZ5MTaGLv1qoteY-lPvHTOGeQV2FDPdr5aBsxSA2Tt5UoLPd4MPi35O3KC1LfShGLi76wvBBcq3KOrWiCizuLMBsCXonkqoDaW-fuarFloR0k6qdQ-c3eE-TB2OLywHiINblCdYf-KoZgvsWKXhHwBoQ2G0-MsTEYXEf_bfhJOAtnaKRTAxRZSTDfUwZWgZv_eoK0kLOKs64BtYBiLWx8liavpjMlR0zjoGzu14rnMG6N5-8xU-LexC-EApxFhh4rpr4o_qp7tt5Yboqxhjev3QlvfNmcr6QvfkBLohIWQ4_9tv9LvfBJ8GTB3egZso_c-_zIvmvJ3UtBm_3lH7UDVPRsDgpKAi5p9KvVQjvfo547jtqewJybaGjBPT7gL7XtoYsOh6N8JO3S-B8XQhr5NlCHVVR4ngP8MkAp80UwXCHTa2zsexH0DiycPfqF7Z4ziWvlZzEXyVXtHB5NIQ8j9gSbigQeIsx-SYjcbVB88fLP287kGZXqW7xUNynzstlt1MhwIkQJ2VQdu7m00]--></g></svg>