<?xml version="1.0" encoding="us-ascii" standalone="no"?><svg xmlns="http://www.w3.org/2000/svg" xmlns:xlink="http://www.w3.org/1999/xlink" contentStyleType="text/css" height="643px" preserveAspectRatio="none" style="width:780px;height:643px;background:#FFFFFF;" version="1.1" viewBox="0 0 780 643" width="780px" zoomAndPan="magnify"><defs/><g><!--cluster MVC Architecture--><g id="cluster_MVC Architecture"><path d="M299.5,6.0137 L423.5,6.0137 A3.75,3.75 0 0 1 426,8.5137 L433,30.6348 L510.5,30.6348 A2.5,2.5 0 0 1 513,33.1348 L513,633.5137 A2.5,2.5 0 0 1 510.5,636.0137 L299.5,636.0137 A2.5,2.5 0 0 1 297,633.5137 L297,8.5137 A2.5,2.5 0 0 1 299.5,6.0137 " fill="none" style="stroke:#000000;stroke-width:1.5;"/><line style="stroke:#000000;stroke-width:1.5;" x1="297" x2="433" y1="30.6348" y2="30.6348"/><text fill="#000000" font-family="sans-serif" font-size="14" font-weight="bold" lengthAdjust="spacing" textLength="123" x="301" y="23.1211">MVC Architecture</text></g><!--cluster Controller (api)--><g id="cluster_Controller (api)"><path d="M323.5,51.0137 L430.5,51.0137 A3.75,3.75 0 0 1 433,53.5137 L440,75.6348 L460.5,75.6348 A2.5,2.5 0 0 1 463,78.1348 L463,150.5137 A2.5,2.5 0 0 1 460.5,153.0137 L323.5,153.0137 A2.5,2.5 0 0 1 321,150.5137 L321,53.5137 A2.5,2.5 0 0 1 323.5,51.0137 " fill="none" style="stroke:#000000;stroke-width:1.5;"/><line style="stroke:#000000;stroke-width:1.5;" x1="321" x2="440" y1="75.6348" y2="75.6348"/><text fill="#000000" font-family="sans-serif" font-size="14" font-weight="bold" lengthAdjust="spacing" textLength="106" x="325" y="68.1211">Controller (api)</text></g><!--cluster Service--><g id="cluster_Service"><path d="M329.5,204.0137 L384.5,204.0137 A3.75,3.75 0 0 1 387,206.5137 L394,228.6348 L450.5,228.6348 A2.5,2.5 0 0 1 453,231.1348 L453,303.5137 A2.5,2.5 0 0 1 450.5,306.0137 L329.5,306.0137 A2.5,2.5 0 0 1 327,303.5137 L327,206.5137 A2.5,2.5 0 0 1 329.5,204.0137 " fill="none" style="stroke:#000000;stroke-width:1.5;"/><line style="stroke:#000000;stroke-width:1.5;" x1="327" x2="394" y1="228.6348" y2="228.6348"/><text fill="#000000" font-family="sans-serif" font-size="14" font-weight="bold" lengthAdjust="spacing" textLength="54" x="331" y="221.1211">Service</text></g><!--cluster Data Access (mapper)--><g id="cluster_Data Access (mapper)"><path d="M323.5,357.0137 L476.5,357.0137 A3.75,3.75 0 0 1 479,359.5137 L486,381.6348 L486.5,381.6348 A2.5,2.5 0 0 1 489,384.1348 L489,456.5137 A2.5,2.5 0 0 1 486.5,459.0137 L323.5,459.0137 A2.5,2.5 0 0 1 321,456.5137 L321,359.5137 A2.5,2.5 0 0 1 323.5,357.0137 " fill="none" style="stroke:#000000;stroke-width:1.5;"/><line style="stroke:#000000;stroke-width:1.5;" x1="321" x2="486" y1="381.6348" y2="381.6348"/><text fill="#000000" font-family="sans-serif" font-size="14" font-weight="bold" lengthAdjust="spacing" textLength="152" x="325" y="374.1211">Data Access (mapper)</text></g><!--cluster Model (pojo)--><g id="cluster_Model (pojo)"><path d="M347.5,510.0137 L437.5,510.0137 A3.75,3.75 0 0 1 440,512.5137 L447,534.6348 L458.5,534.6348 A2.5,2.5 0 0 1 461,537.1348 L461,609.5137 A2.5,2.5 0 0 1 458.5,612.0137 L347.5,612.0137 A2.5,2.5 0 0 1 345,609.5137 L345,512.5137 A2.5,2.5 0 0 1 347.5,510.0137 " fill="none" style="stroke:#000000;stroke-width:1.5;"/><line style="stroke:#000000;stroke-width:1.5;" x1="345" x2="447" y1="534.6348" y2="534.6348"/><text fill="#000000" font-family="sans-serif" font-size="14" font-weight="bold" lengthAdjust="spacing" textLength="89" x="349" y="527.1211">Model (pojo)</text></g><!--cluster Common Utilities (common)--><g id="cluster_Common Utilities (common)"><path d="M8.5,357.0137 L200.5,357.0137 A3.75,3.75 0 0 1 203,359.5137 L210,381.6348 L210.5,381.6348 A2.5,2.5 0 0 1 213,384.1348 L213,456.5137 A2.5,2.5 0 0 1 210.5,459.0137 L8.5,459.0137 A2.5,2.5 0 0 1 6,456.5137 L6,359.5137 A2.5,2.5 0 0 1 8.5,357.0137 " fill="none" style="stroke:#000000;stroke-width:1.5;"/><line style="stroke:#000000;stroke-width:1.5;" x1="6" x2="210" y1="381.6348" y2="381.6348"/><text fill="#000000" font-family="sans-serif" font-size="14" font-weight="bold" lengthAdjust="spacing" textLength="191" x="10" y="374.1211">Common Utilities (common)</text></g><!--cluster Exception Handling (exception)--><g id="cluster_Exception Handling (exception)"><path d="M539.5,357.0137 L760.5,357.0137 A3.75,3.75 0 0 1 763,359.5137 L770,381.6348 L770.5,381.6348 A2.5,2.5 0 0 1 773,384.1348 L773,456.5137 A2.5,2.5 0 0 1 770.5,459.0137 L539.5,459.0137 A2.5,2.5 0 0 1 537,456.5137 L537,359.5137 A2.5,2.5 0 0 1 539.5,357.0137 " fill="none" style="stroke:#000000;stroke-width:1.5;"/><line style="stroke:#000000;stroke-width:1.5;" x1="537" x2="770" y1="381.6348" y2="381.6348"/><text fill="#000000" font-family="sans-serif" font-size="14" font-weight="bold" lengthAdjust="spacing" textLength="220" x="541" y="374.1211">Exception Handling (exception)</text></g><!--cluster Architecture Rules (arc)--><g id="cluster_Architecture Rules (arc)"><path d="M57.5,510.0137 L225.5,510.0137 A3.75,3.75 0 0 1 228,512.5137 L235,534.6348 L270.5,534.6348 A2.5,2.5 0 0 1 273,537.1348 L273,609.5137 A2.5,2.5 0 0 1 270.5,612.0137 L57.5,612.0137 A2.5,2.5 0 0 1 55,609.5137 L55,512.5137 A2.5,2.5 0 0 1 57.5,510.0137 " fill="none" style="stroke:#000000;stroke-width:1.5;"/><line style="stroke:#000000;stroke-width:1.5;" x1="55" x2="235" y1="534.6348" y2="534.6348"/><text fill="#000000" font-family="sans-serif" font-size="14" font-weight="bold" lengthAdjust="spacing" textLength="167" x="59" y="527.1211">Architecture Rules (arc)</text></g><!--entity Controllers--><g id="elem_Controllers"><rect fill="#F1F1F1" height="48.6211" rx="2.5" ry="2.5" style="stroke:#181818;stroke-width:0.5;" width="109" x="337.5" y="88.0137"/><rect fill="#F1F1F1" height="10" style="stroke:#181818;stroke-width:0.5;" width="15" x="426.5" y="93.0137"/><rect fill="#F1F1F1" height="2" style="stroke:#181818;stroke-width:0.5;" width="4" x="424.5" y="95.0137"/><rect fill="#F1F1F1" height="2" style="stroke:#181818;stroke-width:0.5;" width="4" x="424.5" y="99.0137"/><text fill="#000000" font-family="sans-serif" font-size="14" lengthAdjust="spacing" textLength="69" x="352.5" y="123.1211">Controllers</text></g><!--entity Services--><g id="elem_Services"><rect fill="#F1F1F1" height="48.6211" rx="2.5" ry="2.5" style="stroke:#181818;stroke-width:0.5;" width="94" x="343" y="241.0137"/><rect fill="#F1F1F1" height="10" style="stroke:#181818;stroke-width:0.5;" width="15" x="417" y="246.0137"/><rect fill="#F1F1F1" height="2" style="stroke:#181818;stroke-width:0.5;" width="4" x="415" y="248.0137"/><rect fill="#F1F1F1" height="2" style="stroke:#181818;stroke-width:0.5;" width="4" x="415" y="252.0137"/><text fill="#000000" font-family="sans-serif" font-size="14" lengthAdjust="spacing" textLength="54" x="358" y="276.1211">Services</text></g><!--entity Mappers--><g id="elem_Mappers"><rect fill="#F1F1F1" height="48.6211" rx="2.5" ry="2.5" style="stroke:#181818;stroke-width:0.5;" width="95" x="342.5" y="394.0137"/><rect fill="#F1F1F1" height="10" style="stroke:#181818;stroke-width:0.5;" width="15" x="417.5" y="399.0137"/><rect fill="#F1F1F1" height="2" style="stroke:#181818;stroke-width:0.5;" width="4" x="415.5" y="401.0137"/><rect fill="#F1F1F1" height="2" style="stroke:#181818;stroke-width:0.5;" width="4" x="415.5" y="405.0137"/><text fill="#000000" font-family="sans-serif" font-size="14" lengthAdjust="spacing" textLength="55" x="357.5" y="429.1211">Mappers</text></g><!--entity POJOs--><g id="elem_POJOs"><rect fill="#F1F1F1" height="48.6211" rx="2.5" ry="2.5" style="stroke:#181818;stroke-width:0.5;" width="84" x="361" y="547.0137"/><rect fill="#F1F1F1" height="10" style="stroke:#181818;stroke-width:0.5;" width="15" x="425" y="552.0137"/><rect fill="#F1F1F1" height="2" style="stroke:#181818;stroke-width:0.5;" width="4" x="423" y="554.0137"/><rect fill="#F1F1F1" height="2" style="stroke:#181818;stroke-width:0.5;" width="4" x="423" y="558.0137"/><text fill="#000000" font-family="sans-serif" font-size="14" lengthAdjust="spacing" textLength="44" x="376" y="582.1211">POJOs</text></g><!--entity Utilities--><g id="elem_Utilities"><rect fill="#F1F1F1" height="48.6211" rx="2.5" ry="2.5" style="stroke:#181818;stroke-width:0.5;" width="84" x="110" y="394.0137"/><rect fill="#F1F1F1" height="10" style="stroke:#181818;stroke-width:0.5;" width="15" x="174" y="399.0137"/><rect fill="#F1F1F1" height="2" style="stroke:#181818;stroke-width:0.5;" width="4" x="172" y="401.0137"/><rect fill="#F1F1F1" height="2" style="stroke:#181818;stroke-width:0.5;" width="4" x="172" y="405.0137"/><text fill="#000000" font-family="sans-serif" font-size="14" lengthAdjust="spacing" textLength="44" x="125" y="429.1211">Utilities</text></g><!--entity Exceptions--><g id="elem_Exceptions"><rect fill="#F1F1F1" height="48.6211" rx="2.5" ry="2.5" style="stroke:#181818;stroke-width:0.5;" width="108" x="553" y="394.0137"/><rect fill="#F1F1F1" height="10" style="stroke:#181818;stroke-width:0.5;" width="15" x="641" y="399.0137"/><rect fill="#F1F1F1" height="2" style="stroke:#181818;stroke-width:0.5;" width="4" x="639" y="401.0137"/><rect fill="#F1F1F1" height="2" style="stroke:#181818;stroke-width:0.5;" width="4" x="639" y="405.0137"/><text fill="#000000" font-family="sans-serif" font-size="14" lengthAdjust="spacing" textLength="68" x="568" y="429.1211">Exceptions</text></g><!--entity Architecture Standards--><g id="elem_Architecture Standards"><rect fill="#F1F1F1" height="48.6211" rx="2.5" ry="2.5" style="stroke:#181818;stroke-width:0.5;" width="185" x="71.5" y="547.0137"/><rect fill="#F1F1F1" height="10" style="stroke:#181818;stroke-width:0.5;" width="15" x="236.5" y="552.0137"/><rect fill="#F1F1F1" height="2" style="stroke:#181818;stroke-width:0.5;" width="4" x="234.5" y="554.0137"/><rect fill="#F1F1F1" height="2" style="stroke:#181818;stroke-width:0.5;" width="4" x="234.5" y="558.0137"/><text fill="#000000" font-family="sans-serif" font-size="14" lengthAdjust="spacing" textLength="145" x="86.5" y="582.1211">Architecture Standards</text></g><!--link Controllers to Services--><g id="link_Controllers_Services"><path d="M391.69,137.1037 C391.31,165.3137 390.7683,206.2442 390.3983,234.5842 " fill="none" id="Controllers-to-Services" style="stroke:#181818;stroke-width:1.0;stroke-dasharray:7.0,7.0;"/><polygon fill="#181818" points="390.32,240.5837,394.4372,231.6367,390.3853,235.5841,386.4378,231.5322,390.32,240.5837" style="stroke:#181818;stroke-width:1.0;"/><text fill="#000000" font-family="sans-serif" font-size="13" lengthAdjust="spacing" textLength="28" x="392" y="184.042">uses</text></g><!--link Services to Mappers--><g id="link_Services_Mappers"><path d="M390,290.1037 C390,318.3137 390,359.2437 390,387.5837 " fill="none" id="Services-to-Mappers" style="stroke:#181818;stroke-width:1.0;stroke-dasharray:7.0,7.0;"/><polygon fill="#181818" points="390,393.5837,394,384.5837,390,388.5837,386,384.5837,390,393.5837" style="stroke:#181818;stroke-width:1.0;"/><text fill="#000000" font-family="sans-serif" font-size="13" lengthAdjust="spacing" textLength="28" x="391" y="337.042">uses</text></g><!--link Mappers to POJOs--><g id="link_Mappers_POJOs"><path d="M392.03,443.1037 C394.46,471.3137 397.9853,512.2658 400.4253,540.6058 " fill="none" id="Mappers-to-POJOs" style="stroke:#181818;stroke-width:1.0;stroke-dasharray:7.0,7.0;"/><polygon fill="#181818" points="400.94,546.5837,404.1532,537.2737,400.5111,541.6021,396.1827,537.96,400.94,546.5837" style="stroke:#181818;stroke-width:1.0;"/><text fill="#000000" font-family="sans-serif" font-size="13" lengthAdjust="spacing" textLength="32" x="397" y="490.042">maps</text></g><!--link Services to Utilities--><g id="link_Services_Utilities"><path d="M342.63,271.3237 C303.07,277.4437 247.02,291.2137 208,322.0137 C184.47,340.5937 171.0381,366.4187 162.4081,388.1087 " fill="none" id="Services-to-Utilities" style="stroke:#181818;stroke-width:1.0;stroke-dasharray:7.0,7.0;"/><polygon fill="#181818" points="160.19,393.6837,167.2338,386.8,162.0385,389.0379,159.8006,383.8425,160.19,393.6837" style="stroke:#181818;stroke-width:1.0;"/><text fill="#000000" font-family="sans-serif" font-size="13" lengthAdjust="spacing" textLength="28" x="209" y="337.042">uses</text></g><!--link Services to Exceptions--><g id="link_Services_Exceptions"><path d="M423.91,290.1037 C464.55,318.3937 527.345,362.0867 568.045,390.4067 " fill="none" id="Services-to-Exceptions" style="stroke:#181818;stroke-width:1.0;stroke-dasharray:7.0,7.0;"/><polygon fill="#181818" points="572.97,393.8337,567.8671,385.4099,568.8658,390.9779,563.2978,391.9766,572.97,393.8337" style="stroke:#181818;stroke-width:1.0;"/><text fill="#000000" font-family="sans-serif" font-size="13" lengthAdjust="spacing" textLength="28" x="492" y="337.042">uses</text></g><!--link Controllers to Exceptions--><g id="link_Controllers_Exceptions"><path d="M409.8,137.2037 C422.07,153.6237 438.67,176.0337 453,196.0137 C504.18,267.3737 559.6167,348.0685 587.4267,388.7985 " fill="none" id="Controllers-to-Exceptions" style="stroke:#181818;stroke-width:1.0;stroke-dasharray:7.0,7.0;"/><polygon fill="#181818" points="590.81,393.7537,589.0385,384.0655,587.9906,389.6244,582.4316,388.5765,590.81,393.7537" style="stroke:#181818;stroke-width:1.0;"/><text fill="#000000" font-family="sans-serif" font-size="13" lengthAdjust="spacing" textLength="28" x="536" y="271.042">uses</text></g><!--link Controllers to Utilities--><g id="link_Controllers_Utilities"><path d="M359.12,137.2037 C312.83,172.3137 228.96,242.6137 183,322.0137 C169.82,344.7937 162.7653,368.0811 158.0753,388.1511 " fill="none" id="Controllers-to-Utilities" style="stroke:#181818;stroke-width:1.0;stroke-dasharray:7.0,7.0;"/><polygon fill="#181818" points="156.71,393.9937,162.653,386.14,157.8478,389.1248,154.8629,384.3196,156.71,393.9937" style="stroke:#181818;stroke-width:1.0;"/><text fill="#000000" font-family="sans-serif" font-size="13" lengthAdjust="spacing" textLength="28" x="289" y="271.042">uses</text></g><!--link Controllers to Architecture Standards--><g id="link_Controllers_Architecture Standards"><path d="M337.3,124.1537 C291.25,135.4337 225.91,157.1537 181,196.0137 C121.84,247.1937 114,273.3837 94,349.0137 C80.59,399.7137 78.64,416.8737 94,467.0137 C103.34,497.5037 121.1471,522.538 137.9271,542.218 " fill="none" id="Controllers-to-Architecture Standards" style="stroke:#181818;stroke-width:1.0;stroke-dasharray:7.0,7.0;"/><polygon fill="#181818" points="141.82,546.7837,139.0245,537.3399,138.5759,542.9789,132.9369,542.5304,141.82,546.7837" style="stroke:#181818;stroke-width:1.0;"/><text fill="#000000" font-family="sans-serif" font-size="13" lengthAdjust="spacing" textLength="39" x="101" y="337.042">follows</text></g><!--link Services to Architecture Standards--><g id="link_Services_Architecture Standards"><path d="M352.88,290.0837 C331.24,305.0937 304.47,326.0137 285,349.0137 C256.97,382.1237 202.5476,491.1296 178.1276,541.2596 " fill="none" id="Services-to-Architecture Standards" style="stroke:#181818;stroke-width:1.0;stroke-dasharray:7.0,7.0;"/><polygon fill="#181818" points="175.5,546.6537,183.0374,540.3144,177.6897,542.1586,175.8454,536.8109,175.5,546.6537" style="stroke:#181818;stroke-width:1.0;"/><text fill="#000000" font-family="sans-serif" font-size="13" lengthAdjust="spacing" textLength="39" x="286" y="424.042">follows</text></g><!--link Mappers to Architecture Standards--><g id="link_Mappers_Architecture Standards"><path d="M356.48,443.3237 C335.5,458.1037 307.83,477.3937 283,494.0137 C255.95,512.1137 230.0965,528.7595 206.5465,543.6995 " fill="none" id="Mappers-to-Architecture Standards" style="stroke:#181818;stroke-width:1.0;stroke-dasharray:7.0,7.0;"/><polygon fill="#181818" points="201.48,546.9137,211.2225,545.4701,205.7021,544.2352,206.937,538.7148,201.48,546.9137" style="stroke:#181818;stroke-width:1.0;"/><text fill="#000000" font-family="sans-serif" font-size="13" lengthAdjust="spacing" textLength="39" x="310" y="490.042">follows</text></g><!--SRC=[ZP7DJiCm48JlUOfLBuHB7u13fQeW8QIeLIkuL3sidAKrEB5bEu24U7UsJlFZX8ZwE9xFCxisADxnI33BNbQmjE8aFGbVMPh1Tv807zCuLhhqLYj55b8qylRiWClPTvVk4DIV0RqZ-o45HT15co3kqICi1TyxI0iqXcoScGLjWivqJWfIezzqJ6tMJ-kOYSh3VBxeDOCxg1ov9EvRcvhyoDEAmLA7iO7xkuJpUjii2bt2ivTAUaayeWXAMtRVNXqYyE5BaF6IsKSiSoNB8wJKQ1tTsWPu_uzXMwbpCbhHWP5Xvpa3RLu_SWDRKXWUFKcUPxYGhd6pag6ZrwgrZBT_dUkFjB5fOXecNjcdFySLho3YF_uV-0K0]--></g></svg>