<?xml version="1.0" encoding="us-ascii" standalone="no"?><svg xmlns="http://www.w3.org/2000/svg" xmlns:xlink="http://www.w3.org/1999/xlink" contentStyleType="text/css" height="731px" preserveAspectRatio="none" style="width:367px;height:731px;background:#FFFFFF;" version="1.1" viewBox="0 0 367 731" width="367px" zoomAndPan="magnify"><defs/><g><rect fill="none" height="23.9414" style="stroke:none;stroke-width:1.0;" width="334.5" x="15" y="13.0176"/><ellipse cx="67" cy="51.959" fill="#222222" rx="10" ry="10" style="stroke:#222222;stroke-width:1.0;"/><rect fill="#F1F1F1" height="35.9609" rx="12.5" ry="12.5" style="stroke:#181818;stroke-width:0.5;" width="68" x="33" y="81.959"/><text fill="#000000" font-family="sans-serif" font-size="12" lengthAdjust="spacing" textLength="48" x="43" y="104.9082">&#39044;&#23450;&#26426;&#25151;</text><rect fill="#F1F1F1" height="35.9609" rx="12.5" ry="12.5" style="stroke:#181818;stroke-width:0.5;" width="92" x="21" y="137.9199"/><text fill="#000000" font-family="sans-serif" font-size="12" lengthAdjust="spacing" textLength="72" x="31" y="160.8691">&#26597;&#35810;&#35838;&#31243;&#23433;&#25490;</text><rect fill="#F1F1F1" height="35.9609" rx="12.5" ry="12.5" style="stroke:#181818;stroke-width:0.5;" width="92" x="21" y="193.8809"/><text fill="#000000" font-family="sans-serif" font-size="12" lengthAdjust="spacing" textLength="72" x="31" y="216.8301">&#26597;&#30475;&#26426;&#25151;&#29366;&#24577;</text><line style="stroke:#000000;stroke-width:1.5;" x1="15" x2="15" y1="13.0176" y2="719.5293"/><rect fill="#F1F1F1" height="35.9609" rx="12.5" ry="12.5" style="stroke:#181818;stroke-width:0.5;" width="92" x="123" y="249.8418"/><text fill="#000000" font-family="sans-serif" font-size="12" lengthAdjust="spacing" textLength="72" x="133" y="272.791">&#26597;&#35810;&#35838;&#31243;&#23433;&#25490;</text><rect fill="#F1F1F1" height="35.9609" rx="12.5" ry="12.5" style="stroke:#181818;stroke-width:0.5;" width="92" x="123" y="305.8027"/><text fill="#000000" font-family="sans-serif" font-size="12" lengthAdjust="spacing" textLength="72" x="133" y="328.752">&#26597;&#30475;&#26426;&#25151;&#29366;&#24577;</text><line style="stroke:#000000;stroke-width:1.5;" x1="117" x2="117" y1="13.0176" y2="719.5293"/><rect fill="#F1F1F1" height="35.9609" rx="12.5" ry="12.5" style="stroke:#181818;stroke-width:0.5;" width="68" x="250.5" y="361.7637"/><text fill="#000000" font-family="sans-serif" font-size="12" lengthAdjust="spacing" textLength="48" x="260.5" y="384.7129">&#31649;&#29702;&#35838;&#31243;</text><rect fill="#F1F1F1" height="35.9609" rx="12.5" ry="12.5" style="stroke:#181818;stroke-width:0.5;" width="92" x="238.5" y="417.7246"/><text fill="#000000" font-family="sans-serif" font-size="12" lengthAdjust="spacing" textLength="72" x="248.5" y="440.6738">&#31649;&#29702;&#25945;&#24072;&#20449;&#24687;</text><rect fill="#F1F1F1" height="35.9609" rx="12.5" ry="12.5" style="stroke:#181818;stroke-width:0.5;" width="92" x="238.5" y="473.6855"/><text fill="#000000" font-family="sans-serif" font-size="12" lengthAdjust="spacing" textLength="72" x="248.5" y="496.6348">&#31649;&#29702;&#23398;&#29983;&#20449;&#24687;</text><rect fill="#F1F1F1" height="35.9609" rx="12.5" ry="12.5" style="stroke:#181818;stroke-width:0.5;" width="119" x="225" y="529.6465"/><text fill="#000000" font-family="sans-serif" font-size="12" lengthAdjust="spacing" textLength="99" x="235" y="552.5957">&#28155;&#21152;/&#20462;&#25913;&#26426;&#25151;&#20449;&#24687;</text><rect fill="#F1F1F1" height="35.9609" rx="12.5" ry="12.5" style="stroke:#181818;stroke-width:0.5;" width="92" x="238.5" y="585.6074"/><text fill="#000000" font-family="sans-serif" font-size="12" lengthAdjust="spacing" textLength="72" x="248.5" y="608.5566">&#25764;&#38144;&#26426;&#25151;&#20998;&#37197;</text><rect fill="#F1F1F1" height="35.9609" rx="12.5" ry="12.5" style="stroke:#181818;stroke-width:0.5;" width="95" x="237" y="641.5684"/><text fill="#000000" font-family="sans-serif" font-size="12" lengthAdjust="spacing" textLength="75" x="247" y="664.5176">&#21551;&#29992;/&#20572;&#29992;&#26426;&#25151;</text><ellipse cx="284.5" cy="708.5293" fill="none" rx="11" ry="11" style="stroke:#222222;stroke-width:1.0;"/><ellipse cx="284.5" cy="708.5293" fill="#222222" rx="6" ry="6" style="stroke:#222222;stroke-width:1.0;"/><line style="stroke:#000000;stroke-width:1.5;" x1="219" x2="219" y1="13.0176" y2="719.5293"/><line style="stroke:#000000;stroke-width:1.5;" x1="348" x2="348" y1="13.0176" y2="719.5293"/><line style="stroke:#181818;stroke-width:1.0;" x1="67" x2="67" y1="61.959" y2="81.959"/><polygon fill="#181818" points="63,71.959,67,81.959,71,71.959,67,75.959" style="stroke:#181818;stroke-width:1.0;"/><line style="stroke:#181818;stroke-width:1.0;" x1="67" x2="67" y1="117.9199" y2="137.9199"/><polygon fill="#181818" points="63,127.9199,67,137.9199,71,127.9199,67,131.9199" style="stroke:#181818;stroke-width:1.0;"/><line style="stroke:#181818;stroke-width:1.0;" x1="67" x2="67" y1="173.8809" y2="193.8809"/><polygon fill="#181818" points="63,183.8809,67,193.8809,71,183.8809,67,187.8809" style="stroke:#181818;stroke-width:1.0;"/><line style="stroke:#181818;stroke-width:1.0;" x1="169" x2="169" y1="285.8027" y2="305.8027"/><polygon fill="#181818" points="165,295.8027,169,305.8027,173,295.8027,169,299.8027" style="stroke:#181818;stroke-width:1.0;"/><line style="stroke:#181818;stroke-width:1.0;" x1="284.5" x2="284.5" y1="397.7246" y2="417.7246"/><polygon fill="#181818" points="280.5,407.7246,284.5,417.7246,288.5,407.7246,284.5,411.7246" style="stroke:#181818;stroke-width:1.0;"/><line style="stroke:#181818;stroke-width:1.0;" x1="284.5" x2="284.5" y1="453.6855" y2="473.6855"/><polygon fill="#181818" points="280.5,463.6855,284.5,473.6855,288.5,463.6855,284.5,467.6855" style="stroke:#181818;stroke-width:1.0;"/><line style="stroke:#181818;stroke-width:1.0;" x1="284.5" x2="284.5" y1="509.6465" y2="529.6465"/><polygon fill="#181818" points="280.5,519.6465,284.5,529.6465,288.5,519.6465,284.5,523.6465" style="stroke:#181818;stroke-width:1.0;"/><line style="stroke:#181818;stroke-width:1.0;" x1="284.5" x2="284.5" y1="565.6074" y2="585.6074"/><polygon fill="#181818" points="280.5,575.6074,284.5,585.6074,288.5,575.6074,284.5,579.6074" style="stroke:#181818;stroke-width:1.0;"/><line style="stroke:#181818;stroke-width:1.0;" x1="284.5" x2="284.5" y1="621.5684" y2="641.5684"/><polygon fill="#181818" points="280.5,631.5684,284.5,641.5684,288.5,631.5684,284.5,635.5684" style="stroke:#181818;stroke-width:1.0;"/><line style="stroke:#181818;stroke-width:1.0;" x1="284.5" x2="284.5" y1="677.5293" y2="697.5293"/><polygon fill="#181818" points="280.5,687.5293,284.5,697.5293,288.5,687.5293,284.5,691.5293" style="stroke:#181818;stroke-width:1.0;"/><line style="stroke:#181818;stroke-width:1.0;" x1="67" x2="67" y1="229.8418" y2="234.8418"/><line style="stroke:#181818;stroke-width:1.0;" x1="67" x2="169" y1="234.8418" y2="234.8418"/><line style="stroke:#181818;stroke-width:1.0;" x1="169" x2="169" y1="234.8418" y2="249.8418"/><polygon fill="#181818" points="165,239.8418,169,249.8418,173,239.8418,169,243.8418" style="stroke:#181818;stroke-width:1.0;"/><line style="stroke:#181818;stroke-width:1.0;" x1="169" x2="169" y1="341.7637" y2="346.7637"/><line style="stroke:#181818;stroke-width:1.0;" x1="169" x2="284.5" y1="346.7637" y2="346.7637"/><line style="stroke:#181818;stroke-width:1.0;" x1="284.5" x2="284.5" y1="346.7637" y2="361.7637"/><polygon fill="#181818" points="280.5,351.7637,284.5,361.7637,288.5,351.7637,284.5,355.7637" style="stroke:#181818;stroke-width:1.0;"/><text fill="#000000" font-family="sans-serif" font-size="18" lengthAdjust="spacing" textLength="36" x="48" y="32.4414">&#25945;&#24072;</text><text fill="#000000" font-family="sans-serif" font-size="18" lengthAdjust="spacing" textLength="36" x="150" y="32.4414">&#23398;&#29983;</text><text fill="#000000" font-family="sans-serif" font-size="18" lengthAdjust="spacing" textLength="54" x="256.5" y="32.4414">&#31649;&#29702;&#21592;</text><!--SRC=[bP1D3e9038NtSndsS1fFe56Miu142K8qICP43Gb2rB1nPkTl8fUX7RY5apJWsbNRhtrvRJbkz_08EPkvewdBxAwSWpnWziAmTfYD-RbLPQi-kef1Bd6T4jHPJ3Cwkg7dEunnk5wqoFbV6YqBdGImsHaPvIHp-fAsQ-e2VJL0SXeWtjyG7QscbYYUvF3hfQTEU0GX3Bh5oa18b1QL1NvcGd-gUS1uyWK0]--></g></svg>