<?xml version="1.0" encoding="us-ascii" standalone="no"?><svg xmlns="http://www.w3.org/2000/svg" xmlns:xlink="http://www.w3.org/1999/xlink" contentStyleType="text/css" height="652px" preserveAspectRatio="none" style="width:296px;height:652px;background:#FFFFFF;" version="1.1" viewBox="0 0 296 652" width="296px" zoomAndPan="magnify"><defs/><g><!--cluster ??????--><g id="cluster_&#26426;&#25151;&#23433;&#25490;&#31995;&#32479;"><rect fill="none" height="639" rx="2.5" ry="2.5" style="stroke:#181818;stroke-width:1.0;" width="198" x="92" y="7"/><text fill="#000000" font-family="sans-serif" font-size="14" font-weight="bold" lengthAdjust="spacing" textLength="84" x="149" y="24.1074">&#26426;&#25151;&#23433;&#25490;&#31995;&#32479;</text></g><g id="elem_UC1"><ellipse cx="190.7907" cy="128.8608" fill="#F1F1F1" rx="51.7907" ry="16.3608" style="stroke:#181818;stroke-width:0.5;"/><text fill="#000000" font-family="sans-serif" font-size="14" lengthAdjust="spacing" textLength="56" x="159.7907" y="133.6645">&#39044;&#23450;&#26426;&#25151;</text></g><g id="elem_UC2"><ellipse cx="190.9559" cy="265.1912" fill="#F1F1F1" rx="71.4559" ry="16.6912" style="stroke:#181818;stroke-width:0.5;"/><text fill="#000000" font-family="sans-serif" font-size="14" lengthAdjust="spacing" textLength="84" x="145.9559" y="269.9949">&#26597;&#35810;&#35838;&#31243;&#23433;&#25490;</text></g><g id="elem_UC3"><ellipse cx="190.9559" cy="197.1912" fill="#F1F1F1" rx="71.4559" ry="16.6912" style="stroke:#181818;stroke-width:0.5;"/><text fill="#000000" font-family="sans-serif" font-size="14" lengthAdjust="spacing" textLength="84" x="145.9559" y="201.9949">&#26597;&#30475;&#26426;&#25151;&#29366;&#24577;</text></g><g id="elem_UC4"><ellipse cx="190.7907" cy="60.8608" fill="#F1F1F1" rx="51.7907" ry="16.3608" style="stroke:#181818;stroke-width:0.5;"/><text fill="#000000" font-family="sans-serif" font-size="14" lengthAdjust="spacing" textLength="56" x="159.7907" y="65.6645">&#31649;&#29702;&#35838;&#31243;</text></g><g id="elem_UC5"><ellipse cx="190.9559" cy="613.1912" fill="#F1F1F1" rx="71.4559" ry="16.6912" style="stroke:#181818;stroke-width:0.5;"/><text fill="#000000" font-family="sans-serif" font-size="14" lengthAdjust="spacing" textLength="84" x="145.9559" y="617.9949">&#31649;&#29702;&#25945;&#24072;&#20449;&#24687;</text></g><g id="elem_UC6"><ellipse cx="190.9559" cy="333.1912" fill="#F1F1F1" rx="71.4559" ry="16.6912" style="stroke:#181818;stroke-width:0.5;"/><text fill="#000000" font-family="sans-serif" font-size="14" lengthAdjust="spacing" textLength="84" x="145.9559" y="337.9949">&#31649;&#29702;&#23398;&#29983;&#20449;&#24687;</text></g><g id="elem_UC7"><ellipse cx="190.8887" cy="403.9777" fill="#F1F1F1" rx="82.8887" ry="18.9777" style="stroke:#181818;stroke-width:0.5;"/><text fill="#000000" font-family="sans-serif" font-size="14" lengthAdjust="spacing" textLength="116" x="129.8887" y="408.7815">&#28155;&#21152;/&#20462;&#25913;&#26426;&#25151;&#20449;&#24687;</text></g><g id="elem_UC8"><ellipse cx="190.9559" cy="475.1912" fill="#F1F1F1" rx="71.4559" ry="16.6912" style="stroke:#181818;stroke-width:0.5;"/><text fill="#000000" font-family="sans-serif" font-size="14" lengthAdjust="spacing" textLength="84" x="145.9559" y="479.9949">&#25764;&#38144;&#26426;&#25151;&#20998;&#37197;</text></g><g id="elem_UC9"><ellipse cx="190.7869" cy="543.9574" fill="#F1F1F1" rx="72.7869" ry="16.9574" style="stroke:#181818;stroke-width:0.5;"/><text fill="#000000" font-family="sans-serif" font-size="14" lengthAdjust="spacing" textLength="88" x="143.7869" y="548.7611">&#21551;&#29992;/&#20572;&#29992;&#26426;&#25151;</text></g><!--entity ??--><g id="elem_&#25945;&#24072;"><ellipse cx="27" cy="98" fill="#F1F1F1" rx="8" ry="8" style="stroke:#181818;stroke-width:0.5;"/><path d="M27,106 L27,133 M14,114 L40,114 M27,133 L14,148 M27,133 L40,148 " fill="none" style="stroke:#181818;stroke-width:0.5;"/><text fill="#000000" font-family="sans-serif" font-size="14" lengthAdjust="spacing" textLength="28" x="13" y="164.6074">&#25945;&#24072;</text></g><!--entity ??--><g id="elem_&#23398;&#29983;"><ellipse cx="27" cy="223" fill="#F1F1F1" rx="8" ry="8" style="stroke:#181818;stroke-width:0.5;"/><path d="M27,231 L27,258 M14,239 L40,239 M27,258 L14,273 M27,258 L40,273 " fill="none" style="stroke:#181818;stroke-width:0.5;"/><text fill="#000000" font-family="sans-serif" font-size="14" lengthAdjust="spacing" textLength="28" x="13" y="289.6074">&#23398;&#29983;</text></g><!--entity ???--><g id="elem_&#31649;&#29702;&#21592;"><ellipse cx="27" cy="444" fill="#F1F1F1" rx="8" ry="8" style="stroke:#181818;stroke-width:0.5;"/><path d="M27,452 L27,479 M14,460 L40,460 M27,479 L14,494 M27,479 L40,494 " fill="none" style="stroke:#181818;stroke-width:0.5;"/><text fill="#000000" font-family="sans-serif" font-size="14" lengthAdjust="spacing" textLength="42" x="6" y="510.6074">&#31649;&#29702;&#21592;</text></g><!--link ?? to UC1--><g id="link_&#25945;&#24072;_UC1"><path d="M41.26,129 C62.34,129 104.61,129 138.72,129 " fill="none" id="&#25945;&#24072;-UC1" style="stroke:#181818;stroke-width:1.0;"/></g><!--link ?? to UC2--><g id="link_&#23398;&#29983;_UC2"><path d="M41.26,254.9 C59.02,256.11 91.81,258.33 122.09,260.39 " fill="none" id="&#23398;&#29983;-UC2" style="stroke:#181818;stroke-width:1.0;"/></g><!--link ?? to UC3--><g id="link_&#25945;&#24072;_UC3"><path d="M41.31,138.32 C52.36,145.74 68.69,156.01 84,163 C102.9,171.62 124.62,179 143.46,184.66 " fill="none" id="&#25945;&#24072;-UC3" style="stroke:#181818;stroke-width:1.0;"/></g><!--link ?? to UC3--><g id="link_&#23398;&#29983;_UC3"><path d="M41.24,248.22 C52.51,243.37 69.19,236.41 84,231 C104.42,223.54 127.37,216.07 146.67,210.04 " fill="none" id="&#23398;&#29983;-UC3" style="stroke:#181818;stroke-width:1.0;"/></g><!--link ?? to UC4--><g id="link_&#25945;&#24072;_UC4"><path d="M41.31,119.68 C52.36,112.26 68.69,101.99 84,95 C105.19,85.33 129.91,77.23 150.15,71.37 " fill="none" id="&#25945;&#24072;-UC4" style="stroke:#181818;stroke-width:1.0;"/></g><!--link ??? to UC5--><g id="link_&#31649;&#29702;&#21592;_UC5"><path d="M41.32,514.73 C50.33,536.15 64.24,561.49 84,578 C98.2,589.86 116.56,597.75 134,602.97 " fill="none" id="&#31649;&#29702;&#21592;-UC5" style="stroke:#181818;stroke-width:1.0;"/></g><!--link ??? to UC6--><g id="link_&#31649;&#29702;&#21592;_UC6"><path d="M40,435.41 C48.8,412.5 62.94,384.79 84,367 C97.8,355.34 115.66,347.66 132.78,342.61 " fill="none" id="&#31649;&#29702;&#21592;-UC6" style="stroke:#181818;stroke-width:1.0;"/></g><!--link ??? to UC7--><g id="link_&#31649;&#29702;&#21592;_UC7"><path d="M48.17,461.34 C58.58,454.66 71.66,446.82 84,441 C101.81,432.6 122.06,425.07 140.06,419.03 " fill="none" id="&#31649;&#29702;&#21592;-UC7" style="stroke:#181818;stroke-width:1.0;"/></g><!--link ??? to UC8--><g id="link_&#31649;&#29702;&#21592;_UC8"><path d="M48.19,475 C66.09,475 93.32,475 119.15,475 " fill="none" id="&#31649;&#29702;&#21592;-UC8" style="stroke:#181818;stroke-width:1.0;"/></g><!--link ??? to UC9--><g id="link_&#31649;&#29702;&#21592;_UC9"><path d="M48.13,488.75 C58.53,495.45 71.61,503.28 84,509 C102.83,517.69 124.44,525.23 143.21,531.06 " fill="none" id="&#31649;&#29702;&#21592;-UC9" style="stroke:#181818;stroke-width:1.0;"/></g><!--SRC=[RT7BIiD050RW_Jp5a7qfDlQszXbyW11Z3PG6ad4bGWDQOejIImILG6nHwSPaKV0MC2_JcMdUmkWP2jDCDc5-lXpE_EbRnmGJ1xjsxuJW8zkrJ68x0sIOn74nktkWdu4uqBTN7iRYm9CvduxexJr2VvyOWrxVmXgBlbcGq-IAtSpuAkDPhE4pXCldrBDCmoj9iRYWoID03HiUFZpOamMBNpRfOfF-yEK4HWdNg3WUJM0I7x-peI-SBZjO5UO9iQyISDbrFcT-AbnJvQ07oRLsDll8wFYfliuJ5dx1WX9lx_3PSn4EHNV1gBYy5guZEpfDURYiKpygNrA3NVGluGQuLjkM2hj2qgWOlMBqYe6gjhyRmgOgRAd2jYhigC8kEaU_]--></g></svg>