<?xml version="1.0" encoding="us-ascii" standalone="no"?><svg xmlns="http://www.w3.org/2000/svg" xmlns:xlink="http://www.w3.org/1999/xlink" contentStyleType="text/css" height="499px" preserveAspectRatio="none" style="width:441px;height:499px;background:#FFFFFF;" version="1.1" viewBox="0 0 441 499" width="441px" zoomAndPan="magnify"><defs/><g><line style="stroke:#181818;stroke-width:0.5;stroke-dasharray:5.0,5.0;" x1="22" x2="22" y1="83.6211" y2="416.5313"/><line style="stroke:#181818;stroke-width:0.5;stroke-dasharray:5.0,5.0;" x1="124" x2="124" y1="83.6211" y2="416.5313"/><line style="stroke:#181818;stroke-width:0.5;stroke-dasharray:5.0,5.0;" x1="226" x2="226" y1="83.6211" y2="416.5313"/><line style="stroke:#181818;stroke-width:0.5;stroke-dasharray:5.0,5.0;" x1="320" x2="320" y1="83.6211" y2="416.5313"/><line style="stroke:#181818;stroke-width:0.5;stroke-dasharray:5.0,5.0;" x1="407" x2="407" y1="83.6211" y2="416.5313"/><text fill="#000000" font-family="sans-serif" font-size="14" lengthAdjust="spacing" textLength="28" x="5" y="80.1074">&#25945;&#24072;</text><ellipse cx="22" cy="13.5" fill="#E2E2F0" rx="8" ry="8" style="stroke:#181818;stroke-width:0.5;"/><path d="M22,21.5 L22,48.5 M9,29.5 L35,29.5 M22,48.5 L9,63.5 M22,48.5 L35,63.5 " fill="none" style="stroke:#181818;stroke-width:0.5;"/><text fill="#000000" font-family="sans-serif" font-size="14" lengthAdjust="spacing" textLength="28" x="5" y="430.6387">&#25945;&#24072;</text><ellipse cx="22" cy="442.6523" fill="#E2E2F0" rx="8" ry="8" style="stroke:#181818;stroke-width:0.5;"/><path d="M22,450.6523 L22,477.6523 M9,458.6523 L35,458.6523 M22,477.6523 L9,492.6523 M22,477.6523 L35,492.6523 " fill="none" style="stroke:#181818;stroke-width:0.5;"/><rect fill="#E2E2F0" height="32.6211" rx="2.5" ry="2.5" style="stroke:#181818;stroke-width:0.5;" width="70" x="89" y="50"/><text fill="#000000" font-family="sans-serif" font-size="14" lengthAdjust="spacing" textLength="56" x="96" y="72.1074">&#25945;&#24072;&#26381;&#21153;</text><rect fill="#E2E2F0" height="32.6211" rx="2.5" ry="2.5" style="stroke:#181818;stroke-width:0.5;" width="70" x="89" y="415.5313"/><text fill="#000000" font-family="sans-serif" font-size="14" lengthAdjust="spacing" textLength="56" x="96" y="437.6387">&#25945;&#24072;&#26381;&#21153;</text><rect fill="#E2E2F0" height="32.6211" rx="2.5" ry="2.5" style="stroke:#181818;stroke-width:0.5;" width="70" x="191" y="50"/><text fill="#000000" font-family="sans-serif" font-size="14" lengthAdjust="spacing" textLength="56" x="198" y="72.1074">&#35838;&#31243;&#26381;&#21153;</text><rect fill="#E2E2F0" height="32.6211" rx="2.5" ry="2.5" style="stroke:#181818;stroke-width:0.5;" width="70" x="191" y="415.5313"/><text fill="#000000" font-family="sans-serif" font-size="14" lengthAdjust="spacing" textLength="56" x="198" y="437.6387">&#35838;&#31243;&#26381;&#21153;</text><rect fill="#E2E2F0" height="32.6211" rx="2.5" ry="2.5" style="stroke:#181818;stroke-width:0.5;" width="98" x="271" y="50"/><text fill="#000000" font-family="sans-serif" font-size="14" lengthAdjust="spacing" textLength="84" x="278" y="72.1074">&#25151;&#38388;&#21344;&#29992;&#26381;&#21153;</text><rect fill="#E2E2F0" height="32.6211" rx="2.5" ry="2.5" style="stroke:#181818;stroke-width:0.5;" width="98" x="271" y="415.5313"/><text fill="#000000" font-family="sans-serif" font-size="14" lengthAdjust="spacing" textLength="84" x="278" y="437.6387">&#25151;&#38388;&#21344;&#29992;&#26381;&#21153;</text><rect fill="#E2E2F0" height="32.6211" rx="2.5" ry="2.5" style="stroke:#181818;stroke-width:0.5;" width="56" x="379" y="50"/><text fill="#000000" font-family="sans-serif" font-size="14" lengthAdjust="spacing" textLength="42" x="386" y="72.1074">&#25968;&#25454;&#24211;</text><rect fill="#E2E2F0" height="32.6211" rx="2.5" ry="2.5" style="stroke:#181818;stroke-width:0.5;" width="56" x="379" y="415.5313"/><text fill="#000000" font-family="sans-serif" font-size="14" lengthAdjust="spacing" textLength="42" x="386" y="437.6387">&#25968;&#25454;&#24211;</text><polygon fill="#181818" points="112,112.9121,122,116.9121,112,120.9121,116,116.9121" style="stroke:#181818;stroke-width:1.0;"/><line style="stroke:#181818;stroke-width:1.0;" x1="22" x2="118" y1="116.9121" y2="116.9121"/><text fill="#000000" font-family="sans-serif" font-size="13" lengthAdjust="spacing" textLength="52" x="29" y="111.6494">&#35831;&#27714;&#39044;&#23450;</text><polygon fill="#181818" points="214,144.2031,224,148.2031,214,152.2031,218,148.2031" style="stroke:#181818;stroke-width:1.0;"/><line style="stroke:#181818;stroke-width:1.0;" x1="124" x2="220" y1="148.2031" y2="148.2031"/><text fill="#000000" font-family="sans-serif" font-size="13" lengthAdjust="spacing" textLength="78" x="131" y="142.9404">&#33719;&#21462;&#35838;&#31243;&#20449;&#24687;</text><polygon fill="#181818" points="395,175.4941,405,179.4941,395,183.4941,399,179.4941" style="stroke:#181818;stroke-width:1.0;"/><line style="stroke:#181818;stroke-width:1.0;" x1="226" x2="401" y1="179.4941" y2="179.4941"/><text fill="#000000" font-family="sans-serif" font-size="13" lengthAdjust="spacing" textLength="52" x="233" y="174.2314">&#26597;&#35810;&#35838;&#31243;</text><polygon fill="#181818" points="237,206.7852,227,210.7852,237,214.7852,233,210.7852" style="stroke:#181818;stroke-width:1.0;"/><line style="stroke:#181818;stroke-width:1.0;stroke-dasharray:2.0,2.0;" x1="231" x2="406" y1="210.7852" y2="210.7852"/><text fill="#000000" font-family="sans-serif" font-size="13" lengthAdjust="spacing" textLength="52" x="243" y="205.5225">&#35838;&#31243;&#25968;&#25454;</text><polygon fill="#181818" points="135,238.0762,125,242.0762,135,246.0762,131,242.0762" style="stroke:#181818;stroke-width:1.0;"/><line style="stroke:#181818;stroke-width:1.0;stroke-dasharray:2.0,2.0;" x1="129" x2="225" y1="242.0762" y2="242.0762"/><text fill="#000000" font-family="sans-serif" font-size="13" lengthAdjust="spacing" textLength="78" x="141" y="236.8135">&#36820;&#22238;&#35838;&#31243;&#20449;&#24687;</text><polygon fill="#181818" points="308,269.3672,318,273.3672,308,277.3672,312,273.3672" style="stroke:#181818;stroke-width:1.0;"/><line style="stroke:#181818;stroke-width:1.0;" x1="124" x2="314" y1="273.3672" y2="273.3672"/><text fill="#000000" font-family="sans-serif" font-size="13" lengthAdjust="spacing" textLength="104" x="131" y="268.1045">&#33719;&#21462;&#25151;&#38388;&#21344;&#29992;&#20449;&#24687;</text><polygon fill="#181818" points="395,300.6582,405,304.6582,395,308.6582,399,304.6582" style="stroke:#181818;stroke-width:1.0;"/><line style="stroke:#181818;stroke-width:1.0;" x1="320" x2="401" y1="304.6582" y2="304.6582"/><text fill="#000000" font-family="sans-serif" font-size="13" lengthAdjust="spacing" textLength="52" x="327" y="299.3955">&#26597;&#35810;&#25151;&#38388;</text><polygon fill="#181818" points="331,331.9492,321,335.9492,331,339.9492,327,335.9492" style="stroke:#181818;stroke-width:1.0;"/><line style="stroke:#181818;stroke-width:1.0;stroke-dasharray:2.0,2.0;" x1="325" x2="406" y1="335.9492" y2="335.9492"/><text fill="#000000" font-family="sans-serif" font-size="13" lengthAdjust="spacing" textLength="52" x="337" y="330.6865">&#25151;&#38388;&#25968;&#25454;</text><polygon fill="#181818" points="135,363.2402,125,367.2402,135,371.2402,131,367.2402" style="stroke:#181818;stroke-width:1.0;"/><line style="stroke:#181818;stroke-width:1.0;stroke-dasharray:2.0,2.0;" x1="129" x2="319" y1="367.2402" y2="367.2402"/><text fill="#000000" font-family="sans-serif" font-size="13" lengthAdjust="spacing" textLength="78" x="141" y="361.9775">&#36820;&#22238;&#25151;&#38388;&#20449;&#24687;</text><polygon fill="#181818" points="33,394.5313,23,398.5313,33,402.5313,29,398.5313" style="stroke:#181818;stroke-width:1.0;"/><line style="stroke:#181818;stroke-width:1.0;stroke-dasharray:2.0,2.0;" x1="27" x2="123" y1="398.5313" y2="398.5313"/><text fill="#000000" font-family="sans-serif" font-size="13" lengthAdjust="spacing" textLength="78" x="39" y="393.2686">&#36820;&#22238;&#39044;&#23450;&#32467;&#26524;</text><!--SRC=[TP7BYi8m58RtUOhWtXUOXQ_WmYU8CM0NOoMD0xDKNCX8dOKtlE0D1bnP1K5Hi2ypIUjRM4sjJKstpVUVyt-d23EJGj4VyMCB8WioWd2PK515b1dOgA8AWndvBAOs_rbcObI1q2y34nNsdOktRiTWRDQeHRIiQBdNuPxR2w-tZYMeQNxcCQu54FxM1_jROM_ugVlWIuYX8h88064ncCqbEi8Fw3i7iMjSLqs-6OF4Qy0hDUzuvy1_1zBctrsAkWDK9CWy5mUucF_vpahY8FgUrGsM1teO94TgUxizFfafHTxRwquMISJF74xGyZeZcLMDKfP9D1JJBqZta-4KlrSiukL_zCvTCPk26m00]--></g></svg>