<?xml version="1.0" encoding="us-ascii" standalone="no"?><svg xmlns="http://www.w3.org/2000/svg" xmlns:xlink="http://www.w3.org/1999/xlink" contentStyleType="text/css" height="465px" preserveAspectRatio="none" style="width:1138px;height:465px;background:#FFFFFF;" version="1.1" viewBox="0 0 1138 465" width="1138px" zoomAndPan="magnify"><defs/><g><!--class RoomBookingDTO--><g id="elem_RoomBookingDTO"><rect codeLine="3" fill="#F1F1F1" height="122.4844" id="RoomBookingDTO" rx="2.5" ry="2.5" style="stroke:#181818;stroke-width:0.5;" width="155" x="275" y="336"/><ellipse cx="292.25" cy="352" fill="#ADD1B2" rx="11" ry="11" style="stroke:#181818;stroke-width:1.0;"/><path d="M291.5938,357.8594 Q289.6094,357.8594 288.4375,356.3906 Q287.2813,354.9063 287.2813,351.8281 Q287.2813,349.2188 288.5,347.4688 Q289.7344,345.7188 291.8594,345.7188 Q292.3594,345.7188 292.8906,345.8594 Q293.3281,346.0469 293.5938,346.0469 Q293.8125,346.0469 293.9063,346 Q294.0156,345.9531 294.4688,345.3594 L295.2344,349.0938 L294.3438,349.3594 Q293.8906,347.9063 293.2813,347.3125 Q292.6875,346.7031 291.7344,346.7031 Q290.5156,346.7031 289.7969,348.1406 Q289.0781,349.5625 289.0781,351.75 Q289.0781,354.1563 289.6875,355.4531 Q290.3125,356.7344 291.6719,356.7344 Q292.625,356.7344 293.3125,356.0469 Q294,355.3438 294.3281,353.8438 L295.2344,354.25 Q294.8281,355.9531 293.8594,356.9063 Q292.9063,357.8594 291.5938,357.8594 Z " fill="#000000"/><text fill="#000000" font-family="sans-serif" font-size="14" lengthAdjust="spacing" textLength="118" x="306.75" y="357.7969">RoomBookingDTO</text><line style="stroke:#181818;stroke-width:0.5;" x1="276" x2="429" y1="368" y2="368"/><rect fill="none" height="6" style="stroke:#C82930;stroke-width:1.0;" width="6" x="283" y="379.8105"/><text fill="#000000" font-family="sans-serif" font-size="14" lengthAdjust="spacing" textLength="103" x="295" y="387.1074">courseId : String</text><rect fill="none" height="6" style="stroke:#C82930;stroke-width:1.0;" width="6" x="283" y="398.4316"/><text fill="#000000" font-family="sans-serif" font-size="14" lengthAdjust="spacing" textLength="108" x="295" y="405.7285">teacherId : String</text><rect fill="none" height="6" style="stroke:#C82930;stroke-width:1.0;" width="6" x="283" y="417.0527"/><text fill="#000000" font-family="sans-serif" font-size="14" lengthAdjust="spacing" textLength="113" x="295" y="424.3496">weekDay : Integer</text><rect fill="none" height="6" style="stroke:#C82930;stroke-width:1.0;" width="6" x="283" y="435.6738"/><text fill="#000000" font-family="sans-serif" font-size="14" lengthAdjust="spacing" textLength="129" x="295" y="442.9707">courseStart : Integer</text><line style="stroke:#181818;stroke-width:0.5;" x1="276" x2="429" y1="450.4844" y2="450.4844"/></g><!--class TeacherController--><g id="elem_TeacherController"><rect codeLine="11" fill="#F1F1F1" height="66.6211" id="TeacherController" rx="2.5" ry="2.5" style="stroke:#181818;stroke-width:0.5;" width="457" x="7" y="7"/><ellipse cx="173.75" cy="23" fill="#ADD1B2" rx="11" ry="11" style="stroke:#181818;stroke-width:1.0;"/><path d="M173.0938,28.8594 Q171.1094,28.8594 169.9375,27.3906 Q168.7813,25.9063 168.7813,22.8281 Q168.7813,20.2188 170,18.4688 Q171.2344,16.7188 173.3594,16.7188 Q173.8594,16.7188 174.3906,16.8594 Q174.8281,17.0469 175.0938,17.0469 Q175.3125,17.0469 175.4063,17 Q175.5156,16.9531 175.9688,16.3594 L176.7344,20.0938 L175.8438,20.3594 Q175.3906,18.9063 174.7813,18.3125 Q174.1875,17.7031 173.2344,17.7031 Q172.0156,17.7031 171.2969,19.1406 Q170.5781,20.5625 170.5781,22.75 Q170.5781,25.1563 171.1875,26.4531 Q171.8125,27.7344 173.1719,27.7344 Q174.125,27.7344 174.8125,27.0469 Q175.5,26.3438 175.8281,24.8438 L176.7344,25.25 Q176.3281,26.9531 175.3594,27.9063 Q174.4063,28.8594 173.0938,28.8594 Z " fill="#000000"/><text fill="#000000" font-family="sans-serif" font-size="14" lengthAdjust="spacing" textLength="115" x="194.25" y="28.7969">TeacherController</text><line style="stroke:#181818;stroke-width:0.5;" x1="8" x2="463" y1="39" y2="39"/><line style="stroke:#181818;stroke-width:0.5;" x1="8" x2="463" y1="47" y2="47"/><ellipse cx="18" cy="61.8105" fill="#84BE84" rx="3" ry="3" style="stroke:#038048;stroke-width:1.0;"/><text fill="#000000" font-family="sans-serif" font-size="14" lengthAdjust="spacing" textLength="431" x="27" y="66.1074">teacherBooking(roomBookingDTO : RoomBookingDTO) : R&lt;Object&gt;</text></g><!--class RoomBookingService--><g id="elem_RoomBookingService"><rect codeLine="16" fill="#F1F1F1" height="103.8633" id="RoomBookingService" rx="2.5" ry="2.5" style="stroke:#181818;stroke-width:0.5;" width="860" x="271.5" y="153"/><ellipse cx="629.75" cy="169" fill="#ADD1B2" rx="11" ry="11" style="stroke:#181818;stroke-width:1.0;"/><path d="M629.0938,174.8594 Q627.1094,174.8594 625.9375,173.3906 Q624.7813,171.9063 624.7813,168.8281 Q624.7813,166.2188 626,164.4688 Q627.2344,162.7188 629.3594,162.7188 Q629.8594,162.7188 630.3906,162.8594 Q630.8281,163.0469 631.0938,163.0469 Q631.3125,163.0469 631.4063,163 Q631.5156,162.9531 631.9688,162.3594 L632.7344,166.0938 L631.8438,166.3594 Q631.3906,164.9063 630.7813,164.3125 Q630.1875,163.7031 629.2344,163.7031 Q628.0156,163.7031 627.2969,165.1406 Q626.5781,166.5625 626.5781,168.75 Q626.5781,171.1563 627.1875,172.4531 Q627.8125,173.7344 629.1719,173.7344 Q630.125,173.7344 630.8125,173.0469 Q631.5,172.3438 631.8281,170.8438 L632.7344,171.25 Q632.3281,172.9531 631.3594,173.9063 Q630.4063,174.8594 629.0938,174.8594 Z " fill="#000000"/><text fill="#000000" font-family="sans-serif" font-size="14" lengthAdjust="spacing" textLength="135" x="650.25" y="174.7969">RoomBookingService</text><line style="stroke:#181818;stroke-width:0.5;" x1="272.5" x2="1130.5" y1="185" y2="185"/><line style="stroke:#181818;stroke-width:0.5;" x1="272.5" x2="1130.5" y1="193" y2="193"/><ellipse cx="282.5" cy="207.8105" fill="#84BE84" rx="3" ry="3" style="stroke:#038048;stroke-width:1.0;"/><text fill="#000000" font-family="sans-serif" font-size="14" lengthAdjust="spacing" textLength="431" x="291.5" y="212.1074">teacherBooking(roomBookingDTO : RoomBookingDTO) : R&lt;Object&gt;</text><ellipse cx="282.5" cy="226.4316" fill="#84BE84" rx="3" ry="3" style="stroke:#038048;stroke-width:1.0;"/><text fill="#000000" font-family="sans-serif" font-size="14" lengthAdjust="spacing" textLength="834" x="291.5" y="230.7285">readAvailableRoomsByCourseAndStudentCount(roomOccupancy : RoomOccupancy, studentNum : Integer) : List&lt;RoomOccupancy&gt;</text><ellipse cx="282.5" cy="245.0527" fill="#84BE84" rx="3" ry="3" style="stroke:#038048;stroke-width:1.0;"/><text fill="#000000" font-family="sans-serif" font-size="14" lengthAdjust="spacing" textLength="466" x="291.5" y="249.3496">updateByPrimaryKeyIfFree(roomOccupancy : RoomOccupancy) : Boolean</text></g><!--class RoomOccupancy--><g id="elem_RoomOccupancy"><rect codeLine="23" fill="#F1F1F1" height="103.8633" id="RoomOccupancy" rx="2.5" ry="2.5" style="stroke:#181818;stroke-width:0.5;" width="183" x="610" y="345"/><ellipse cx="644.35" cy="361" fill="#ADD1B2" rx="11" ry="11" style="stroke:#181818;stroke-width:1.0;"/><path d="M643.6938,366.8594 Q641.7094,366.8594 640.5375,365.3906 Q639.3813,363.9063 639.3813,360.8281 Q639.3813,358.2188 640.6,356.4688 Q641.8344,354.7188 643.9594,354.7188 Q644.4594,354.7188 644.9906,354.8594 Q645.4281,355.0469 645.6938,355.0469 Q645.9125,355.0469 646.0063,355 Q646.1156,354.9531 646.5688,354.3594 L647.3344,358.0938 L646.4438,358.3594 Q645.9906,356.9063 645.3813,356.3125 Q644.7875,355.7031 643.8344,355.7031 Q642.6156,355.7031 641.8969,357.1406 Q641.1781,358.5625 641.1781,360.75 Q641.1781,363.1563 641.7875,364.4531 Q642.4125,365.7344 643.7719,365.7344 Q644.725,365.7344 645.4125,365.0469 Q646.1,364.3438 646.4281,362.8438 L647.3344,363.25 Q646.9281,364.9531 645.9594,365.9063 Q645.0063,366.8594 643.6938,366.8594 Z " fill="#000000"/><text fill="#000000" font-family="sans-serif" font-size="14" lengthAdjust="spacing" textLength="108" x="662.65" y="366.7969">RoomOccupancy</text><line style="stroke:#181818;stroke-width:0.5;" x1="611" x2="792" y1="377" y2="377"/><rect fill="none" height="6" style="stroke:#C82930;stroke-width:1.0;" width="6" x="618" y="388.8105"/><text fill="#000000" font-family="sans-serif" font-size="14" lengthAdjust="spacing" textLength="128" x="630" y="396.1074">occupancyId : String</text><rect fill="none" height="6" style="stroke:#C82930;stroke-width:1.0;" width="6" x="618" y="407.4316"/><text fill="#000000" font-family="sans-serif" font-size="14" lengthAdjust="spacing" textLength="108" x="630" y="414.7285">capacity : Integer</text><rect fill="none" height="6" style="stroke:#C82930;stroke-width:1.0;" width="6" x="618" y="426.0527"/><text fill="#000000" font-family="sans-serif" font-size="14" lengthAdjust="spacing" textLength="157" x="630" y="433.3496">occupancyState : Integer</text><line style="stroke:#181818;stroke-width:0.5;" x1="611" x2="792" y1="440.8633" y2="440.8633"/></g><!--link TeacherController to RoomBookingDTO--><g id="link_TeacherController_RoomBookingDTO"><path codeLine="29" d="M225.46,74.24 C213.95,117.67 199.54,195.96 223.5,257 C235.11,286.57 252.0873,309.3276 273.9773,331.5276 " fill="none" id="TeacherController-to-RoomBookingDTO" style="stroke:#181818;stroke-width:1.0;"/><polygon fill="#181818" points="278.19,335.8,274.7192,326.583,274.6794,332.2397,269.0227,332.1999,278.19,335.8" style="stroke:#181818;stroke-width:1.0;"/><text fill="#000000" font-family="sans-serif" font-size="13" lengthAdjust="spacing" textLength="28" x="224.5" y="210.5283">uses</text></g><!--link TeacherController to RoomBookingService--><g id="link_TeacherController_RoomBookingService"><path codeLine="30" d="M328.96,74.09 C393.66,96.65 475.4146,125.1644 549.3146,150.9344 " fill="none" id="TeacherController-to-RoomBookingService" style="stroke:#181818;stroke-width:1.0;"/><polygon fill="#181818" points="554.98,152.91,547.7989,146.1696,550.2588,151.2637,545.1648,153.7235,554.98,152.91" style="stroke:#181818;stroke-width:1.0;"/><text fill="#000000" font-family="sans-serif" font-size="13" lengthAdjust="spacing" textLength="28" x="469.5" y="119.0283">uses</text></g><!--link RoomBookingService to RoomBookingDTO--><g id="link_RoomBookingService_RoomBookingDTO"><path codeLine="32" d="M607.52,257.17 C552,287.39 487.8196,322.3309 435.4196,350.8609 " fill="none" id="RoomBookingService-to-RoomBookingDTO" style="stroke:#181818;stroke-width:1.0;"/><polygon fill="#181818" points="430.15,353.73,439.9671,352.9394,434.5413,351.3391,436.1416,345.9133,430.15,353.73" style="stroke:#181818;stroke-width:1.0;"/><text fill="#000000" font-family="sans-serif" font-size="13" lengthAdjust="spacing" textLength="28" x="549.5" y="302.0283">uses</text></g><!--link RoomBookingService to RoomOccupancy--><g id="link_RoomBookingService_RoomOccupancy"><path codeLine="33" d="M701.5,257.17 C701.5,284.31 701.5,311.58 701.5,338.74 " fill="none" id="RoomBookingService-to-RoomOccupancy" style="stroke:#181818;stroke-width:1.0;"/><polygon fill="#181818" points="701.5,344.74,705.5,335.74,701.5,339.74,697.5,335.74,701.5,344.74" style="stroke:#181818;stroke-width:1.0;"/><text fill="#000000" font-family="sans-serif" font-size="13" lengthAdjust="spacing" textLength="28" x="702.5" y="302.0283">uses</text></g><!--SRC=[hL8zJm914EtlLsm7HFa3X900neHeFE8H-sLln9MxNR8x1xaO6mfZenR6mcYFfJPs-ciyui_mFe7Z41ktsvctxysyVINoFRiAdZw3joafdt2OL0pcKAt9iPHkIyeX5uEzdaak31AUAc7IKnewDgaH2rNOJEi8b9s1AZOc0CCzweVbZa0OWCeHMKWLhlGk3QD4vhUpuFezU7o9XsfBWKew3gXij5wYjMoaq-raKwHpbrL-XzhQKfMeKZVxvy2maKhVttnzFCUwvWWKHIx51aSiK6FEu5zq4mO5r6wEANTetu48hbj-ExQeAMmBFHi4XdU1CRd9c3UYWlafz-A-ItI2FVBSfQsHu27NMCzXCsblP5E4bjzLtANAFm2_Sxgl0BOhHPpXIWvGaLWNt4td3w-nTLsgg0ku_B7SoqMMP5OffeRH4MKSYx5Pl0cJWv1FJZ4NrMfZFSWrucdGVsEpBqxnneRMx-nRmAk6njWV]--></g></svg>