<?xml version="1.0" encoding="us-ascii" standalone="no"?><svg xmlns="http://www.w3.org/2000/svg" xmlns:xlink="http://www.w3.org/1999/xlink" contentStyleType="text/css" height="550.5px" preserveAspectRatio="none" style="width:149px;height:550px;background:#FFFFFF;" version="1.1" viewBox="0 0 149 550" width="149px" zoomAndPan="magnify"><defs/><g><ellipse cx="77.5" cy="10" fill="#222222" rx="5" ry="5" style="stroke:#222222;stroke-width:0.5;"/><rect fill="#F1F1F1" height="17.9805" rx="6.25" ry="6.25" style="stroke:#181818;stroke-width:0.25;" width="34" x="60.5" y="25"/><text fill="#000000" font-family="sans-serif" font-size="6" lengthAdjust="spacing" textLength="24" x="65.5" y="36.4746">&#25968;&#25454;&#26657;&#39564;</text><rect fill="#F1F1F1" height="17.9805" rx="6.25" ry="6.25" style="stroke:#181818;stroke-width:0.25;" width="46" x="54.5" y="77.6382"/><text fill="#000000" font-family="sans-serif" font-size="6" lengthAdjust="spacing" textLength="36" x="59.5" y="89.1128">&#36820;&#22238;&#25968;&#25454;&#26080;&#25928;</text><ellipse cx="77.5" cy="114.8784" fill="none" rx="5.5" ry="5.5" style="stroke:#222222;stroke-width:0.5;"/><ellipse cx="77.5" cy="114.8784" fill="#222222" rx="3" ry="3" style="stroke:#222222;stroke-width:0.5;"/><polygon fill="#F1F1F1" points="66.5,52.9805,88.5,52.9805,94.5,58.9805,88.5,64.9805,66.5,64.9805,60.5,58.9805,66.5,52.9805" style="stroke:#181818;stroke-width:0.25;"/><text fill="#000000" font-family="sans-serif" font-size="5.5" lengthAdjust="spacing" textLength="9" x="79.5" y="70.9155">yes</text><text fill="#000000" font-family="sans-serif" font-size="5.5" lengthAdjust="spacing" textLength="22" x="66.5" y="61.2578">&#26657;&#39564;&#22833;&#36133;</text><rect fill="#F1F1F1" height="17.9805" rx="6.25" ry="6.25" style="stroke:#181818;stroke-width:0.25;" width="46" x="54.5" y="141.3784"/><text fill="#000000" font-family="sans-serif" font-size="6" lengthAdjust="spacing" textLength="36" x="59.5" y="152.853">&#26597;&#35810;&#35838;&#31243;&#20449;&#24687;</text><polygon fill="#F1F1F1" points="65,169.3589,90,169.3589,96,175.3589,90,181.3589,65,181.3589,59,175.3589,65,169.3589" style="stroke:#181818;stroke-width:0.25;"/><text fill="#000000" font-family="sans-serif" font-size="5.5" lengthAdjust="spacing" textLength="25" x="65" y="177.6362">&#35838;&#31243;&#23384;&#22312;?</text><text fill="#000000" font-family="sans-serif" font-size="5.5" lengthAdjust="spacing" textLength="6" x="53" y="173.9785">no</text><text fill="#000000" font-family="sans-serif" font-size="5.5" lengthAdjust="spacing" textLength="9" x="96" y="173.9785">yes</text><rect fill="#F1F1F1" height="17.9805" rx="6.25" ry="6.25" style="stroke:#181818;stroke-width:0.25;" width="64" x="13" y="186.3589"/><text fill="#000000" font-family="sans-serif" font-size="6" lengthAdjust="spacing" textLength="54" x="18" y="197.8335">&#36820;&#22238;&#35838;&#31243;&#19981;&#23384;&#22312;&#38169;&#35823;</text><ellipse cx="45" cy="219.8394" fill="none" rx="5.5" ry="5.5" style="stroke:#222222;stroke-width:0.5;"/><ellipse cx="45" cy="219.8394" fill="#222222" rx="3" ry="3" style="stroke:#222222;stroke-width:0.5;"/><rect fill="#F1F1F1" height="17.9805" rx="6.25" ry="6.25" style="stroke:#181818;stroke-width:0.25;" width="46" x="87" y="186.3589"/><text fill="#000000" font-family="sans-serif" font-size="6" lengthAdjust="spacing" textLength="36" x="92" y="197.8335">&#26597;&#35810;&#25945;&#24072;&#20449;&#24687;</text><polygon fill="#F1F1F1" points="65,235.3394,90,235.3394,96,241.3394,90,247.3394,65,247.3394,59,241.3394,65,235.3394" style="stroke:#181818;stroke-width:0.25;"/><text fill="#000000" font-family="sans-serif" font-size="5.5" lengthAdjust="spacing" textLength="25" x="65" y="243.6167">&#25945;&#24072;&#23384;&#22312;?</text><text fill="#000000" font-family="sans-serif" font-size="5.5" lengthAdjust="spacing" textLength="6" x="53" y="239.959">no</text><text fill="#000000" font-family="sans-serif" font-size="5.5" lengthAdjust="spacing" textLength="9" x="96" y="239.959">yes</text><rect fill="#F1F1F1" height="17.9805" rx="6.25" ry="6.25" style="stroke:#181818;stroke-width:0.25;" width="64" x="16" y="252.3394"/><text fill="#000000" font-family="sans-serif" font-size="6" lengthAdjust="spacing" textLength="54" x="21" y="263.814">&#36820;&#22238;&#25945;&#24072;&#19981;&#23384;&#22312;&#38169;&#35823;</text><ellipse cx="48" cy="285.8198" fill="none" rx="5.5" ry="5.5" style="stroke:#222222;stroke-width:0.5;"/><ellipse cx="48" cy="285.8198" fill="#222222" rx="3" ry="3" style="stroke:#222222;stroke-width:0.5;"/><rect fill="#F1F1F1" height="17.9805" rx="6.25" ry="6.25" style="stroke:#181818;stroke-width:0.25;" width="34" x="90" y="252.3394"/><text fill="#000000" font-family="sans-serif" font-size="6" lengthAdjust="spacing" textLength="24" x="95" y="263.814">&#31579;&#36873;&#25151;&#38388;</text><polygon fill="#F1F1F1" points="62.25,301.3198,92.75,301.3198,98.75,307.3198,92.75,313.3198,62.25,313.3198,56.25,307.3198,62.25,301.3198" style="stroke:#181818;stroke-width:0.25;"/><text fill="#000000" font-family="sans-serif" font-size="5.5" lengthAdjust="spacing" textLength="30.5" x="62.25" y="309.5972">&#26377;&#31354;&#20313;&#25151;&#38388;?</text><text fill="#000000" font-family="sans-serif" font-size="5.5" lengthAdjust="spacing" textLength="6" x="50.25" y="305.9395">no</text><text fill="#000000" font-family="sans-serif" font-size="5.5" lengthAdjust="spacing" textLength="9" x="98.75" y="305.9395">yes</text><rect fill="#F1F1F1" height="17.9805" rx="6.25" ry="6.25" style="stroke:#181818;stroke-width:0.25;" width="64" x="10" y="318.3198"/><text fill="#000000" font-family="sans-serif" font-size="6" lengthAdjust="spacing" textLength="54" x="15" y="329.7944">&#36820;&#22238;&#26080;&#31354;&#20313;&#24231;&#20301;&#38169;&#35823;</text><ellipse cx="42" cy="351.8003" fill="none" rx="5.5" ry="5.5" style="stroke:#222222;stroke-width:0.5;"/><ellipse cx="42" cy="351.8003" fill="#222222" rx="3" ry="3" style="stroke:#222222;stroke-width:0.5;"/><rect fill="#F1F1F1" height="17.9805" rx="6.25" ry="6.25" style="stroke:#181818;stroke-width:0.25;" width="58" x="84" y="318.3198"/><text fill="#000000" font-family="sans-serif" font-size="6" lengthAdjust="spacing" textLength="48" x="89" y="329.7944">&#26356;&#26032;&#25151;&#38388;&#21344;&#29992;&#20449;&#24687;</text><polygon fill="#F1F1F1" points="65,367.3003,90,367.3003,96,373.3003,90,379.3003,65,379.3003,59,373.3003,65,367.3003" style="stroke:#181818;stroke-width:0.25;"/><text fill="#000000" font-family="sans-serif" font-size="5.5" lengthAdjust="spacing" textLength="25" x="65" y="375.5776">&#26356;&#26032;&#25104;&#21151;?</text><text fill="#000000" font-family="sans-serif" font-size="5.5" lengthAdjust="spacing" textLength="6" x="53" y="371.9199">no</text><text fill="#000000" font-family="sans-serif" font-size="5.5" lengthAdjust="spacing" textLength="9" x="96" y="371.9199">yes</text><rect fill="#F1F1F1" height="17.9805" rx="6.25" ry="6.25" style="stroke:#181818;stroke-width:0.25;" width="70" x="5.5" y="384.3003"/><text fill="#000000" font-family="sans-serif" font-size="6" lengthAdjust="spacing" textLength="60" x="10.5" y="395.7749">&#36820;&#22238;&#26356;&#26032;&#25151;&#38388;&#21344;&#29992;&#22833;&#36133;</text><ellipse cx="40.5" cy="417.7808" fill="none" rx="5.5" ry="5.5" style="stroke:#222222;stroke-width:0.5;"/><ellipse cx="40.5" cy="417.7808" fill="#222222" rx="3" ry="3" style="stroke:#222222;stroke-width:0.5;"/><rect fill="#F1F1F1" height="17.9805" rx="6.25" ry="6.25" style="stroke:#181818;stroke-width:0.25;" width="58" x="85.5" y="384.3003"/><text fill="#000000" font-family="sans-serif" font-size="6" lengthAdjust="spacing" textLength="48" x="90.5" y="395.7749">&#21019;&#24314;&#25151;&#38388;&#30003;&#35831;&#35760;&#24405;</text><polygon fill="#F1F1F1" points="65,433.2808,90,433.2808,96,439.2808,90,445.2808,65,445.2808,59,439.2808,65,433.2808" style="stroke:#181818;stroke-width:0.25;"/><text fill="#000000" font-family="sans-serif" font-size="5.5" lengthAdjust="spacing" textLength="25" x="65" y="441.5581">&#21019;&#24314;&#25104;&#21151;?</text><text fill="#000000" font-family="sans-serif" font-size="5.5" lengthAdjust="spacing" textLength="6" x="53" y="437.9004">no</text><text fill="#000000" font-family="sans-serif" font-size="5.5" lengthAdjust="spacing" textLength="9" x="96" y="437.9004">yes</text><rect fill="#F1F1F1" height="17.9805" rx="6.25" ry="6.25" style="stroke:#181818;stroke-width:0.25;" width="70" x="8.5" y="450.2808"/><text fill="#000000" font-family="sans-serif" font-size="6" lengthAdjust="spacing" textLength="60" x="13.5" y="461.7554">&#36820;&#22238;&#39044;&#23450;&#35760;&#24405;&#25554;&#20837;&#22833;&#36133;</text><ellipse cx="43.5" cy="483.7612" fill="none" rx="5.5" ry="5.5" style="stroke:#222222;stroke-width:0.5;"/><ellipse cx="43.5" cy="483.7612" fill="#222222" rx="3" ry="3" style="stroke:#222222;stroke-width:0.5;"/><rect fill="#F1F1F1" height="17.9805" rx="6.25" ry="6.25" style="stroke:#181818;stroke-width:0.25;" width="46" x="88.5" y="450.2808"/><text fill="#000000" font-family="sans-serif" font-size="6" lengthAdjust="spacing" textLength="36" x="93.5" y="461.7554">&#21019;&#24314;&#21382;&#21490;&#35760;&#24405;</text><rect fill="#F1F1F1" height="17.9805" rx="6.25" ry="6.25" style="stroke:#181818;stroke-width:0.25;" width="40" x="91.5" y="478.2612"/><text fill="#000000" font-family="sans-serif" font-size="6" lengthAdjust="spacing" textLength="30" x="96.5" y="489.7358">&#24322;&#27493;&#21457;&#36890;&#30693;</text><rect fill="#F1F1F1" height="17.9805" rx="6.25" ry="6.25" style="stroke:#181818;stroke-width:0.25;" width="34" x="94.5" y="506.2417"/><text fill="#000000" font-family="sans-serif" font-size="6" lengthAdjust="spacing" textLength="24" x="99.5" y="517.7163">&#36820;&#22238;&#25104;&#21151;</text><ellipse cx="77.5" cy="539.7222" fill="none" rx="5.5" ry="5.5" style="stroke:#222222;stroke-width:0.5;"/><ellipse cx="77.5" cy="539.7222" fill="#222222" rx="3" ry="3" style="stroke:#222222;stroke-width:0.5;"/><line style="stroke:#181818;stroke-width:0.5;" x1="77.5" x2="77.5" y1="15" y2="25"/><polygon fill="#181818" points="75.5,20,77.5,25,79.5,20,77.5,22" style="stroke:#181818;stroke-width:0.5;"/><line style="stroke:#181818;stroke-width:0.5;" x1="77.5" x2="77.5" y1="95.6187" y2="109.3784"/><polygon fill="#181818" points="75.5,104.3784,77.5,109.3784,79.5,104.3784,77.5,106.3784" style="stroke:#181818;stroke-width:0.5;"/><line style="stroke:#181818;stroke-width:0.5;" x1="77.5" x2="77.5" y1="64.9805" y2="77.6382"/><polygon fill="#181818" points="75.5,72.6382,77.5,77.6382,79.5,72.6382,77.5,74.6382" style="stroke:#181818;stroke-width:0.5;"/><line style="stroke:#181818;stroke-width:0.5;" x1="94.5" x2="105.5" y1="58.9805" y2="58.9805"/><polygon fill="#181818" points="103.5,94.3784,105.5,99.3784,107.5,94.3784,105.5,96.3784" style="stroke:#181818;stroke-width:0.5;"/><line style="stroke:#181818;stroke-width:0.5;" x1="105.5" x2="105.5" y1="58.9805" y2="131.3784"/><line style="stroke:#181818;stroke-width:0.5;" x1="105.5" x2="77.5" y1="131.3784" y2="131.3784"/><line style="stroke:#181818;stroke-width:0.5;" x1="77.5" x2="77.5" y1="131.3784" y2="141.3784"/><polygon fill="#181818" points="75.5,136.3784,77.5,141.3784,79.5,136.3784,77.5,138.3784" style="stroke:#181818;stroke-width:0.5;"/><line style="stroke:#181818;stroke-width:0.5;" x1="77.5" x2="77.5" y1="42.9805" y2="52.9805"/><polygon fill="#181818" points="75.5,47.9805,77.5,52.9805,79.5,47.9805,77.5,49.9805" style="stroke:#181818;stroke-width:0.5;"/><line style="stroke:#181818;stroke-width:0.5;" x1="45" x2="45" y1="204.3394" y2="214.3394"/><polygon fill="#181818" points="43,209.3394,45,214.3394,47,209.3394,45,211.3394" style="stroke:#181818;stroke-width:0.5;"/><line style="stroke:#181818;stroke-width:0.5;" x1="59" x2="45" y1="175.3589" y2="175.3589"/><line style="stroke:#181818;stroke-width:0.5;" x1="45" x2="45" y1="175.3589" y2="186.3589"/><polygon fill="#181818" points="43,181.3589,45,186.3589,47,181.3589,45,183.3589" style="stroke:#181818;stroke-width:0.5;"/><line style="stroke:#181818;stroke-width:0.5;" x1="96" x2="110" y1="175.3589" y2="175.3589"/><line style="stroke:#181818;stroke-width:0.5;" x1="110" x2="110" y1="175.3589" y2="186.3589"/><polygon fill="#181818" points="108,181.3589,110,186.3589,112,181.3589,110,183.3589" style="stroke:#181818;stroke-width:0.5;"/><line style="stroke:#181818;stroke-width:0.5;" x1="110" x2="110" y1="204.3394" y2="227.8394"/><line style="stroke:#181818;stroke-width:0.5;" x1="110" x2="77.5" y1="227.8394" y2="227.8394"/><line style="stroke:#181818;stroke-width:0.5;" x1="77.5" x2="77.5" y1="227.8394" y2="235.3394"/><polygon fill="#181818" points="75.5,230.3394,77.5,235.3394,79.5,230.3394,77.5,232.3394" style="stroke:#181818;stroke-width:0.5;"/><line style="stroke:#181818;stroke-width:0.5;" x1="77.5" x2="77.5" y1="159.3589" y2="169.3589"/><polygon fill="#181818" points="75.5,164.3589,77.5,169.3589,79.5,164.3589,77.5,166.3589" style="stroke:#181818;stroke-width:0.5;"/><line style="stroke:#181818;stroke-width:0.5;" x1="48" x2="48" y1="270.3198" y2="280.3198"/><polygon fill="#181818" points="46,275.3198,48,280.3198,50,275.3198,48,277.3198" style="stroke:#181818;stroke-width:0.5;"/><line style="stroke:#181818;stroke-width:0.5;" x1="59" x2="48" y1="241.3394" y2="241.3394"/><line style="stroke:#181818;stroke-width:0.5;" x1="48" x2="48" y1="241.3394" y2="252.3394"/><polygon fill="#181818" points="46,247.3394,48,252.3394,50,247.3394,48,249.3394" style="stroke:#181818;stroke-width:0.5;"/><line style="stroke:#181818;stroke-width:0.5;" x1="96" x2="107" y1="241.3394" y2="241.3394"/><line style="stroke:#181818;stroke-width:0.5;" x1="107" x2="107" y1="241.3394" y2="252.3394"/><polygon fill="#181818" points="105,247.3394,107,252.3394,109,247.3394,107,249.3394" style="stroke:#181818;stroke-width:0.5;"/><line style="stroke:#181818;stroke-width:0.5;" x1="107" x2="107" y1="270.3198" y2="293.8198"/><line style="stroke:#181818;stroke-width:0.5;" x1="107" x2="77.5" y1="293.8198" y2="293.8198"/><line style="stroke:#181818;stroke-width:0.5;" x1="77.5" x2="77.5" y1="293.8198" y2="301.3198"/><polygon fill="#181818" points="75.5,296.3198,77.5,301.3198,79.5,296.3198,77.5,298.3198" style="stroke:#181818;stroke-width:0.5;"/><line style="stroke:#181818;stroke-width:0.5;" x1="42" x2="42" y1="336.3003" y2="346.3003"/><polygon fill="#181818" points="40,341.3003,42,346.3003,44,341.3003,42,343.3003" style="stroke:#181818;stroke-width:0.5;"/><line style="stroke:#181818;stroke-width:0.5;" x1="56.25" x2="42" y1="307.3198" y2="307.3198"/><line style="stroke:#181818;stroke-width:0.5;" x1="42" x2="42" y1="307.3198" y2="318.3198"/><polygon fill="#181818" points="40,313.3198,42,318.3198,44,313.3198,42,315.3198" style="stroke:#181818;stroke-width:0.5;"/><line style="stroke:#181818;stroke-width:0.5;" x1="98.75" x2="113" y1="307.3198" y2="307.3198"/><line style="stroke:#181818;stroke-width:0.5;" x1="113" x2="113" y1="307.3198" y2="318.3198"/><polygon fill="#181818" points="111,313.3198,113,318.3198,115,313.3198,113,315.3198" style="stroke:#181818;stroke-width:0.5;"/><line style="stroke:#181818;stroke-width:0.5;" x1="113" x2="113" y1="336.3003" y2="359.8003"/><line style="stroke:#181818;stroke-width:0.5;" x1="113" x2="77.5" y1="359.8003" y2="359.8003"/><line style="stroke:#181818;stroke-width:0.5;" x1="77.5" x2="77.5" y1="359.8003" y2="367.3003"/><polygon fill="#181818" points="75.5,362.3003,77.5,367.3003,79.5,362.3003,77.5,364.3003" style="stroke:#181818;stroke-width:0.5;"/><line style="stroke:#181818;stroke-width:0.5;" x1="40.5" x2="40.5" y1="402.2808" y2="412.2808"/><polygon fill="#181818" points="38.5,407.2808,40.5,412.2808,42.5,407.2808,40.5,409.2808" style="stroke:#181818;stroke-width:0.5;"/><line style="stroke:#181818;stroke-width:0.5;" x1="59" x2="40.5" y1="373.3003" y2="373.3003"/><line style="stroke:#181818;stroke-width:0.5;" x1="40.5" x2="40.5" y1="373.3003" y2="384.3003"/><polygon fill="#181818" points="38.5,379.3003,40.5,384.3003,42.5,379.3003,40.5,381.3003" style="stroke:#181818;stroke-width:0.5;"/><line style="stroke:#181818;stroke-width:0.5;" x1="96" x2="114.5" y1="373.3003" y2="373.3003"/><line style="stroke:#181818;stroke-width:0.5;" x1="114.5" x2="114.5" y1="373.3003" y2="384.3003"/><polygon fill="#181818" points="112.5,379.3003,114.5,384.3003,116.5,379.3003,114.5,381.3003" style="stroke:#181818;stroke-width:0.5;"/><line style="stroke:#181818;stroke-width:0.5;" x1="114.5" x2="114.5" y1="402.2808" y2="425.7808"/><line style="stroke:#181818;stroke-width:0.5;" x1="114.5" x2="77.5" y1="425.7808" y2="425.7808"/><line style="stroke:#181818;stroke-width:0.5;" x1="77.5" x2="77.5" y1="425.7808" y2="433.2808"/><polygon fill="#181818" points="75.5,428.2808,77.5,433.2808,79.5,428.2808,77.5,430.2808" style="stroke:#181818;stroke-width:0.5;"/><line style="stroke:#181818;stroke-width:0.5;" x1="43.5" x2="43.5" y1="468.2612" y2="478.2612"/><polygon fill="#181818" points="41.5,473.2612,43.5,478.2612,45.5,473.2612,43.5,475.2612" style="stroke:#181818;stroke-width:0.5;"/><line style="stroke:#181818;stroke-width:0.5;" x1="111.5" x2="111.5" y1="468.2612" y2="478.2612"/><polygon fill="#181818" points="109.5,473.2612,111.5,478.2612,113.5,473.2612,111.5,475.2612" style="stroke:#181818;stroke-width:0.5;"/><line style="stroke:#181818;stroke-width:0.5;" x1="111.5" x2="111.5" y1="496.2417" y2="506.2417"/><polygon fill="#181818" points="109.5,501.2417,111.5,506.2417,113.5,501.2417,111.5,503.2417" style="stroke:#181818;stroke-width:0.5;"/><line style="stroke:#181818;stroke-width:0.5;" x1="59" x2="43.5" y1="439.2808" y2="439.2808"/><line style="stroke:#181818;stroke-width:0.5;" x1="43.5" x2="43.5" y1="439.2808" y2="450.2808"/><polygon fill="#181818" points="41.5,445.2808,43.5,450.2808,45.5,445.2808,43.5,447.2808" style="stroke:#181818;stroke-width:0.5;"/><line style="stroke:#181818;stroke-width:0.5;" x1="96" x2="111.5" y1="439.2808" y2="439.2808"/><line style="stroke:#181818;stroke-width:0.5;" x1="111.5" x2="111.5" y1="439.2808" y2="450.2808"/><polygon fill="#181818" points="109.5,445.2808,111.5,450.2808,113.5,445.2808,111.5,447.2808" style="stroke:#181818;stroke-width:0.5;"/><line style="stroke:#181818;stroke-width:0.5;" x1="111.5" x2="111.5" y1="524.2222" y2="526.7222"/><line style="stroke:#181818;stroke-width:0.5;" x1="111.5" x2="77.5" y1="526.7222" y2="526.7222"/><line style="stroke:#181818;stroke-width:0.5;" x1="77.5" x2="77.5" y1="526.7222" y2="534.2222"/><polygon fill="#181818" points="75.5,529.2222,77.5,534.2222,79.5,529.2222,77.5,531.2222" style="stroke:#181818;stroke-width:0.5;"/><!--SRC=[ZP51JeD068Ntd89bUuLsuLbCfB69eKROkAj63LKHDI1I6g6DH3I1GIMnGP7By0_3BQmCc18jTbQJ-Tzxt_ipWhYv9p8Th0LOzh4zpP_Ekqo_nxRe7UwVIUYqMN6RuzdMFYUq6NPnEYHHmRmhNRgDDQbR30HniCjm_5Q_non2BOUW6K6VcNkM9bDyW6WqVG7l5YRkHfND3shHfMikKrck6WIXPSQEm2qNeYoi6J2NAbRPezYc63GZI_FQoCmpy-48IqckXtNOP9GzHcbiqDbAdcvJ6KGFQIp_lw8Pufk0Pe9iPwhxrwAbw19EhPNWNq7qcnlO89dm7b5BfhuIz4Ry06Ajngv4JUnyTWJ-c9gnSWt7pffik3W1vQMYqi778VOSKAxouJYpoeXgnwB5Jxtlu2y0]--></g></svg>